<?xml version="1.0" encoding="UTF-8"?>
<svg xmlns="http://www.w3.org/2000/svg" xmlns:xlink="http://www.w3.org/1999/xlink" width="1439.7" height="976.761" viewBox="0 0 1439.7 976.761">
<defs>
<clipPath id="clip-0">
<path clip-rule="nonzero" d="M 14 336 L 1439.375 336 L 1439.375 976.523438 L 14 976.523438 Z M 14 336 "/>
</clipPath>
<clipPath id="clip-1">
<path clip-rule="nonzero" d="M 0.0273438 0 L 1429 0 L 1429 921 L 0.0273438 921 Z M 0.0273438 0 "/>
</clipPath>
</defs>
<g clip-path="url(#clip-0)">
<path fill-rule="nonzero" fill="rgb(77.2995%, 100%, 29.798889%)" fill-opacity="1" d="M 1439.378906 416.570312 C 1434.824219 541.53125 1348.027344 645.910156 1256.257812 723.183594 C 1044.453125 894.773438 767.023438 976.519531 496.554688 976.523438 C 421.917969 972.082031 346.066406 965.097656 274.125 942.28125 C 147.679688 906.492188 13.261719 811.1875 14.253906 667.085938 C 81.351562 846.53125 292.222656 908.152344 466.742188 919.71875 C 711.902344 932.558594 962.441406 864.699219 1166.777344 728.425781 C 1297.320312 638.523438 1426.265625 504.875 1427.957031 336.953125 C 1437.589844 362.234375 1439.101562 389.726562 1439.378906 416.570312 "/>
</g>
<g clip-path="url(#clip-1)">
<path fill-rule="nonzero" fill="rgb(0.39978%, 0.39978%, 0%)" fill-opacity="1" d="M 499.589844 218.679688 C 530.082031 215.78125 501.128906 204.277344 487.972656 210.789062 C 479.484375 216.480469 495.78125 218.859375 499.589844 218.679688 M 498.953125 186.285156 C 477.277344 184.636719 466.3125 198.960938 494.527344 201.363281 C 521.460938 204.464844 533.449219 186.953125 498.953125 186.285156 M 499.667969 160.554688 C 487.019531 158.757812 458.121094 168.84375 484.003906 177.851562 C 496.484375 180.546875 511.34375 181.277344 522.539062 174.304688 C 531.464844 162.804688 507 160.203125 499.667969 160.554688 M 518.457031 318.519531 C 518.492188 318.519531 518.53125 318.519531 518.566406 318.519531 C 518.507812 290.402344 518.726562 262.285156 518.820312 234.167969 C 518.988281 229.859375 518.035156 229.730469 514.050781 229.714844 C 503.183594 229.671875 492.316406 229.617188 481.453125 229.597656 C 477.398438 229.589844 477.195312 229.796875 477.152344 233.96875 C 476.574219 290.511719 476.242188 347.070312 476.214844 403.613281 C 474.984375 408.542969 509.925781 405 515.195312 406.035156 C 517.089844 405.90625 517.632812 405.339844 517.789062 403.339844 C 518.082031 375.070312 518.21875 346.792969 518.457031 318.519531 M 600.703125 598.1875 C 623.554688 598.1875 646.410156 598.191406 669.265625 598.1875 C 674.664062 598.1875 674.277344 598.570312 674.277344 593.378906 C 674.28125 573.410156 674.289062 553.4375 674.261719 533.464844 C 674.316406 522.398438 673.996094 506.601562 660.015625 504.875 C 618.011719 502.296875 575.628906 504.695312 533.503906 503.886719 C 523.066406 503.394531 511.722656 507.257812 510.867188 519.214844 C 508.292969 556.582031 510.605469 594.304688 509.871094 631.789062 C 509.875 634.21875 509.59375 636.25 507.792969 638.316406 C 497.914062 650.558594 519.042969 665.113281 523.292969 647.601562 C 525.066406 640.6875 519.914062 639.242188 519.214844 633.933594 C 519.226562 601.980469 519.207031 570.023438 519.234375 538.070312 C 519.84375 530.261719 517.125 517.027344 527.59375 515.222656 C 554.164062 513.351562 580.96875 515.023438 607.617188 514.484375 C 624.191406 514.976562 640.957031 513.394531 657.429688 515.304688 C 666.65625 517.4375 664.316406 529.261719 665.054688 536.410156 C 665.117188 551.589844 665.089844 566.765625 665.074219 581.945312 C 665.066406 587.949219 665.679688 587.460938 659.796875 587.460938 C 619.203125 587.410156 578.609375 587.574219 538.015625 587.402344 C 535.988281 587.363281 536.613281 584.894531 536.488281 583.523438 C 536.484375 570.742188 536.476562 557.960938 536.5 545.179688 C 536.636719 541.480469 535.96875 535.808594 541.046875 535.636719 C 566.117188 535.171875 591.234375 535.613281 616.316406 535.464844 C 625.5625 535.671875 634.886719 534.996094 644.097656 535.828125 C 648.523438 536.523438 647.238281 542.375 647.789062 545.660156 C 647.121094 552.113281 649.761719 559.503906 645.738281 565.125 C 637.507812 574.40625 651.414062 590.210938 659.726562 578.421875 C 665.207031 570.210938 657.363281 566.132812 657.109375 558.859375 C 656.992188 549.777344 657.617188 540.601562 656.703125 531.5625 C 656 525.96875 650.675781 524.4375 645.738281 524.878906 C 608.820312 524.902344 571.898438 524.820312 534.984375 524.902344 C 528.429688 524.941406 526.679688 531.289062 527.136719 536.800781 C 527.117188 555.65625 527.125 574.507812 527.125 593.359375 C 527.324219 596.097656 526.265625 598.609375 530.222656 598.179688 C 553.714844 598.207031 577.207031 598.179688 600.703125 598.1875 M 691.03125 593.394531 C 691.03125 575.179688 690.992188 556.960938 691.050781 538.746094 C 690.515625 519.855469 692.171875 492.230469 669.796875 485.601562 C 661.507812 483.101562 652.742188 483.003906 644.152344 482.9375 C 600.882812 484.589844 556.796875 479.40625 513.953125 485.492188 C 500.597656 488.714844 494.765625 501.761719 493.648438 514.394531 C 491.003906 565.078125 493.351562 616.019531 492.59375 666.789062 C 492.566406 671.5 492.441406 671.332031 496.945312 671.324219 C 509.089844 671.292969 521.242188 671.371094 533.386719 671.300781 C 536.972656 671.636719 535.445312 667.480469 535.757812 665.273438 C 535.757812 651.53125 535.746094 637.789062 535.761719 624.046875 C 535.769531 618.292969 535.25 618.964844 540.914062 618.960938 C 581.511719 618.960938 622.113281 618.929688 662.710938 618.964844 C 667.269531 618.449219 664.21875 629.519531 665.097656 632.648438 C 665.125 634.613281 664.796875 636.230469 663.339844 637.839844 C 657.855469 643.304688 661.042969 655.550781 669.28125 655.492188 C 677.816406 655.574219 680.636719 643.496094 675.421875 637.910156 C 674.148438 636.453125 673.71875 635.007812 673.738281 633.160156 C 673.8125 626.765625 673.789062 620.375 673.761719 613.984375 C 673.734375 607.710938 674.445312 608.417969 668.09375 608.414062 C 621.738281 608.421875 575.382812 608.367188 529.03125 608.429688 C 527.5 608.488281 527.203125 608.820312 527.144531 610.519531 C 527.082031 625.539062 527.148438 640.5625 527.121094 655.582031 C 527.339844 659.097656 527.328125 661.464844 522.988281 660.839844 C 517.554688 660.851562 512.121094 660.855469 506.683594 660.84375 C 500.699219 660.828125 501.28125 661.324219 501.277344 655.441406 C 503.179688 606.660156 497.15625 556.800781 504.152344 508.554688 C 508.289062 494.445312 524.253906 493.429688 536.679688 493.4375 C 574.242188 493.46875 611.808594 493.390625 649.367188 493.460938 C 660.832031 493.648438 674.964844 495.152344 679.042969 507.820312 C 686.910156 557.035156 680.257812 608.160156 682.347656 658.003906 C 682.398438 660.523438 681.664062 660.847656 679.605469 660.84375 C 672.574219 660.824219 665.539062 660.851562 658.507812 660.828125 C 654.421875 661.890625 657.335938 639 656.492188 635.265625 C 656.460938 628.597656 657.25 629.410156 650.628906 629.40625 C 620.417969 629.382812 590.210938 629.378906 560 629.425781 C 557.660156 629.429688 555.789062 629.210938 554.308594 626.96875 C 546.5 617.800781 535.511719 632.285156 541.628906 640.941406 C 544.765625 646.324219 551.960938 646.175781 554.484375 642.148438 C 555.707031 640.207031 557.277344 639.910156 559.316406 639.914062 C 587.609375 639.953125 615.902344 639.941406 644.191406 639.941406 C 648.011719 639.101562 648.046875 642.347656 647.8125 645.207031 C 648.6875 649.273438 645.667969 672.042969 649.78125 671.292969 C 662.726562 671.363281 675.679688 671.320312 688.625 671.308594 C 690.734375 671.203125 690.953125 670.96875 691.019531 668.65625 C 691.046875 643.570312 691.019531 618.480469 691.03125 593.394531 M 587.753906 318.6875 C 587.683594 318.6875 587.617188 318.6875 587.546875 318.6875 C 587.027344 348.15625 586.21875 391.222656 621.589844 400.230469 C 639.632812 405.121094 659.933594 404.832031 676.503906 395.492188 C 678.890625 394.183594 679.132812 393.46875 678.175781 390.824219 C 675.300781 382.867188 672.300781 374.957031 669.496094 366.980469 C 668.375 363.792969 667.597656 362.917969 663.898438 364.730469 C 621.289062 383.554688 633.460938 328.210938 631.925781 304.125 C 632.761719 300.679688 629.960938 286.617188 634.070312 286.730469 C 644.617188 286.71875 655.167969 286.925781 665.714844 286.929688 C 668.882812 286.933594 669.394531 286.449219 669.464844 283.382812 C 669.597656 277.792969 669.636719 272.199219 669.703125 266.609375 C 668.886719 262.597656 672.46875 253.015625 666.445312 252.996094 C 655.304688 252.574219 644.035156 253.441406 632.980469 252.394531 C 631.347656 241.648438 633.058594 230.445312 632.550781 219.523438 C 632.953125 215.664062 630.242188 216.015625 627.347656 215.988281 C 579.917969 217.972656 589.34375 203.558594 587.984375 247.210938 C 587.863281 253.070312 588.769531 252.597656 582.5625 252.554688 C 578.246094 252.523438 573.933594 252.492188 569.617188 252.5 C 564.75 252.511719 564.734375 252.542969 564.652344 257.191406 C 564.578125 264.699219 564.578125 272.210938 564.535156 279.71875 C 564.710938 282.09375 563.550781 286.417969 567.167969 286.203125 C 573.402344 286.308594 579.636719 286.253906 585.871094 286.332031 C 589.988281 285.734375 586.804688 313.855469 587.753906 318.6875 M 468.214844 587.464844 C 456.933594 586.988281 445.257812 588.492188 434.085938 586.757812 C 431.84375 585.941406 429.351562 586.523438 426.976562 586.773438 C 425.015625 587.183594 425.949219 589.941406 425.707031 591.402344 C 425.699219 597.476562 425.71875 603.546875 425.679688 609.621094 C 426.210938 615.148438 424.09375 618.886719 418.015625 618.027344 C 384.617188 617.851562 351.179688 618.398438 317.800781 617.828125 C 313.472656 617.464844 314.113281 612.460938 313.984375 609.238281 C 314.242188 585.925781 313.402344 562.546875 314.332031 539.265625 C 314.636719 535.347656 318.871094 535.34375 321.9375 535.398438 C 353.746094 535.386719 385.558594 535.386719 417.367188 535.402344 C 427.414062 534.082031 425.464844 541.792969 425.71875 548.882812 C 425.78125 550.554688 425.359375 551.867188 424.191406 553.195312 C 414.910156 563.1875 430.128906 581.273438 437.898438 566.496094 C 441.949219 559.101562 435.148438 554.746094 434.597656 548.136719 C 434.355469 538.996094 437.609375 522.0625 423.363281 524 C 386.441406 524.046875 349.503906 523.910156 312.589844 524.046875 C 306.609375 524.28125 304.804688 530.308594 304.953125 535.394531 C 304.96875 562.71875 304.96875 590.042969 304.953125 617.371094 C 304.425781 624.476562 308.597656 630.894531 316.371094 629.425781 C 352.015625 629.429688 387.664062 629.429688 423.3125 629.429688 C 428.660156 629.859375 433.734375 628.269531 434.285156 622.277344 C 435.867188 618.25 432.082031 596.699219 437.035156 598.035156 C 440.613281 598.816406 462.300781 595.804688 460.316406 600.371094 C 458.753906 619.773438 467.242188 652.714844 442.234375 659.261719 C 400.335938 663.175781 357.839844 659.753906 315.742188 660.84375 C 299.746094 661.394531 282.394531 658.265625 280.710938 639.140625 C 278.054688 600.339844 279.746094 561.148438 279.886719 522.242188 C 280.292969 510.808594 284.390625 497.421875 297.199219 495.125 C 339.84375 490.941406 383.195312 494.585938 426.070312 493.476562 C 467.058594 490.53125 459.707031 525.09375 460.304688 553.941406 C 460.308594 555.816406 459.921875 556.1875 458.066406 556.199219 C 451.503906 556.242188 451.925781 556.871094 451.871094 550.535156 C 450.105469 535.277344 457.789062 507.960938 437.152344 503.914062 C 392.289062 502.304688 346.875 502.238281 302.019531 503.941406 C 287.453125 505.847656 288.078125 522.777344 287.78125 534.085938 C 288.765625 568.488281 285.425781 603.34375 289.460938 637.507812 C 291.75 649.125 303.683594 650.546875 313.683594 650.414062 C 354.714844 649.753906 395.921875 651.695312 436.878906 649.617188 C 448.488281 648.648438 451.597656 637.386719 451.617188 627.347656 C 452.328125 619.132812 460.621094 615.480469 453.660156 605.644531 C 449.375 599.828125 440.71875 602.597656 439.226562 609.191406 C 436.46875 618.03125 443.078125 619.839844 442.746094 626.28125 C 442.753906 637.394531 434.925781 639.683594 425.246094 639.015625 C 386.566406 638.921875 347.871094 639.222656 309.199219 638.90625 C 298.488281 639.457031 296.175781 630.738281 296.792969 621.726562 C 296.75 593.125 296.722656 564.519531 296.722656 535.917969 C 297.15625 528.660156 295.300781 517.003906 304.726562 515.164062 C 331.277344 513.222656 358.113281 514.980469 384.757812 514.40625 C 398.503906 514.40625 412.253906 514.410156 426 514.40625 C 432.15625 514.441406 440.738281 514.445312 442.125 522.023438 C 444.015625 535.765625 442.726562 549.8125 443.136719 563.664062 C 443.15625 566.609375 443.296875 566.78125 446.019531 566.792969 C 452.890625 566.832031 459.765625 566.828125 466.636719 566.792969 C 471.300781 567.652344 468.242188 555.34375 469.050781 552.210938 C 468.457031 536.320312 470.367188 520.03125 465.941406 504.546875 C 461.699219 486.21875 442.5 482.625 426.203125 482.953125 C 388.316406 482.992188 350.433594 482.882812 312.546875 482.976562 C 276.011719 481.660156 270.167969 502.523438 270.785156 534.457031 C 271.46875 570.359375 269.023438 606.476562 272.132812 642.257812 C 274.160156 666.113281 292.695312 671.988281 313.789062 671.316406 C 333.769531 671.332031 353.75 671.324219 373.734375 671.324219 C 458.039062 670.609375 474.273438 684.148438 468.214844 587.464844 M 731.941406 503.894531 C 728.992188 545.675781 731.691406 587.515625 730.828125 629.386719 C 730.832031 633.386719 730.734375 637.078125 728.199219 640.710938 C 725.585938 644.453125 725.902344 648.972656 728.371094 652.972656 C 737.378906 665.808594 751.113281 645.539062 741.355469 637.089844 C 740.472656 636.246094 740.183594 635.246094 740.246094 634.070312 C 740.28125 596.203125 740.226562 558.328125 740.261719 520.464844 C 740.371094 517.1875 741.296875 516.042969 744.515625 515.976562 C 751.792969 517.03125 762.773438 512.683594 767.550781 519.542969 C 788.195312 544.5625 808.8125 569.601562 829.46875 594.609375 C 830.988281 596.710938 834.207031 600.363281 836.6875 597.558594 C 856.324219 574.429688 875.257812 550.671875 894.648438 527.324219 C 898.5625 523.792969 900.804688 516.851562 906.328125 515.941406 C 912.21875 517.132812 927.933594 512.476562 929.054688 520.074219 C 930.136719 566.324219 927.6875 612.78125 929.953125 658.953125 C 930.285156 660.492188 928.660156 660.941406 927.335938 660.839844 C 920.730469 660.78125 921.417969 661.601562 921.417969 655 C 921.394531 612.5 921.429688 569.996094 921.402344 527.496094 C 921.890625 523.105469 916.347656 525.417969 913.75 524.890625 C 907.34375 525.023438 909.15625 523.910156 904.984375 528.976562 C 882.648438 556.121094 860.328125 583.28125 838.007812 610.433594 C 835.007812 614.078125 835.289062 614.164062 832.25 610.476562 C 809.300781 582.597656 786.261719 554.789062 763.359375 526.871094 C 760.496094 523.261719 755.191406 525.460938 751.1875 524.902344 C 749.171875 524.941406 748.929688 525.1875 748.867188 527.0625 C 748.792969 570.839844 748.894531 614.625 748.832031 658.402344 C 748.757812 660.476562 748.453125 660.808594 746.222656 660.824219 C 740.148438 660.867188 734.074219 660.835938 728 660.847656 C 722.644531 660.855469 722.988281 661.085938 722.988281 655.988281 C 723.0625 602.304688 722.847656 548.613281 723.070312 494.933594 C 723.273438 492.785156 726.035156 493.625 727.511719 493.441406 C 741.257812 493.4375 755 493.441406 768.746094 493.441406 C 771.65625 493.015625 773.570312 494.160156 775.089844 496.589844 C 794.722656 520.371094 814.3125 544.1875 833.972656 567.945312 C 835.695312 570.234375 837.183594 566.417969 838.402344 565.359375 C 857.167969 542.523438 875.96875 519.710938 894.648438 496.804688 C 896.652344 494.34375 898.695312 493.320312 901.898438 493.363281 C 915.484375 493.542969 929.070312 493.445312 942.65625 493.4375 C 947.273438 493.433594 947.226562 493.226562 947.226562 497.765625 C 945.46875 550.273438 950.640625 604.734375 945.363281 656.3125 C 942.191406 659.714844 942.035156 665.445312 944.554688 669.753906 C 952.734375 681.472656 965.792969 665.664062 957.746094 656.378906 C 952.484375 600.769531 957.675781 542.003906 955.882812 485.371094 C 956.070312 482.695312 954.257812 482.960938 952.316406 482.953125 C 933.933594 482.953125 915.554688 482.984375 897.171875 482.914062 C 895.046875 482.902344 893.488281 483.449219 892.300781 485.226562 C 874.4375 506.921875 856.527344 528.628906 838.636719 550.320312 C 834.785156 554.984375 835.527344 555.089844 831.65625 550.402344 C 812.019531 528.757812 795.289062 502.066406 774.121094 482.945312 C 755.742188 482.96875 737.355469 482.949219 718.976562 482.949219 C 714.09375 482.949219 714.355469 482.707031 714.355469 487.691406 C 714.386719 548.25 714.304688 608.8125 714.382812 669.367188 C 714.46875 670.839844 714.875 671.214844 716.5 671.296875 C 728.324219 671.367188 740.152344 671.316406 751.980469 671.316406 C 758.195312 671.304688 757.507812 671.929688 757.511719 665.585938 C 758.023438 622.515625 756.558594 578.574219 758.019531 535.925781 C 783.492188 563.253906 806.816406 595.082031 831.570312 623.890625 C 832.902344 625.109375 834.578125 629.117188 836.371094 626.636719 C 861.878906 596.816406 886.027344 564.828125 912.121094 535.980469 C 913.890625 578.40625 912.140625 622.203125 912.738281 665.070312 C 913.074219 667.210938 911.570312 671.613281 914.882812 671.292969 C 922.078125 671.332031 929.269531 671.332031 936.460938 671.292969 C 938.222656 671.28125 938.585938 670.847656 938.621094 668.921875 C 939.089844 625.304688 938.566406 581.683594 938.636719 538.066406 C 936.523438 496.019531 950.035156 504.640625 906.445312 503.910156 C 901.007812 503.9375 902.558594 503.25 898.902344 507.542969 C 897.765625 508.878906 896.640625 510.234375 895.515625 511.582031 C 876.664062 534.144531 857.8125 556.707031 838.957031 579.261719 C 836.1875 582.894531 834.734375 584.382812 831.789062 579.828125 C 811.742188 555.5625 791.75 531.25 771.695312 506.988281 C 768.820312 503.507812 769.871094 503.910156 765.328125 503.902344 C 754.136719 503.886719 743.167969 503.894531 731.941406 503.894531 M 978.488281 578.074219 C 978.628906 609.0625 978.214844 640.070312 978.652344 671.054688 C 978.925781 672.914062 981.449219 672.160156 982.78125 672.34375 C 988.375 672.351562 993.96875 672.355469 999.5625 672.34375 C 1005.097656 672.335938 1005.113281 672.324219 1005.117188 666.746094 C 1005.128906 652.847656 1005.117188 638.945312 1005.125 625.042969 C 1005.125 619.390625 1004.699219 619.917969 1010.296875 619.914062 C 1052.171875 619.914062 1094.050781 619.90625 1135.925781 619.910156 C 1154.429688 621.382812 1161.265625 608.992188 1160.332031 592.082031 C 1160.195312 569.878906 1160.65625 547.652344 1160.148438 525.457031 C 1159.992188 509.007812 1151.019531 503.179688 1135.339844 503.882812 C 1089.472656 503.964844 1043.597656 503.78125 997.726562 503.960938 C 994.789062 504.246094 995.917969 508.023438 995.664062 510.042969 C 995.65625 537.847656 995.652344 565.648438 995.664062 593.449219 C 995.667969 599.648438 995.035156 598.957031 1001.425781 598.960938 C 1045.539062 598.960938 1089.65625 598.992188 1133.769531 598.953125 C 1138.816406 598.765625 1142.136719 595.898438 1142.90625 590.914062 C 1143.367188 571.46875 1143.230469 551.910156 1142.960938 532.457031 C 1142.453125 526.695312 1138.183594 524.492188 1132.808594 524.886719 C 1093.648438 524.914062 1054.488281 524.828125 1015.332031 524.914062 C 1010.351562 523.335938 1013.910156 554.425781 1012.960938 558.945312 C 1012.894531 566.261719 1004.769531 572.144531 1010.597656 579.496094 C 1013.601562 584.265625 1019.367188 584.707031 1023.265625 580.652344 C 1031.328125 571.171875 1024.042969 567.996094 1022.363281 559.835938 C 1022.4375 552.804688 1022.355469 545.773438 1022.402344 538.746094 C 1022.113281 535.257812 1025.753906 536.617188 1027.917969 536.347656 C 1061.789062 536.601562 1095.710938 535.828125 1129.554688 536.652344 C 1133.523438 536.886719 1133.53125 541.125 1133.585938 544.195312 C 1133.429688 557.605469 1133.960938 571.058594 1133.363281 584.449219 C 1133.019531 588.035156 1128.878906 587.292969 1126.277344 587.453125 C 1087.277344 587.464844 1048.277344 587.457031 1009.277344 587.472656 C 1004.882812 587.476562 1005.117188 587.339844 1005.121094 583.21875 C 1005.125 562.445312 1005.113281 541.675781 1005.128906 520.902344 C 1005.132812 514.671875 1004.53125 515.375 1010.855469 515.375 C 1054.910156 516.066406 1099.191406 513.933594 1143.132812 516.21875 C 1152.675781 518.183594 1150.378906 530.3125 1150.898438 537.605469 C 1150.492188 558.660156 1151.871094 579.851562 1150.175781 600.835938 C 1149.648438 606.738281 1144.25 608.25 1139.144531 608.328125 C 1097.429688 608.855469 1055.71875 607.832031 1014.007812 607.4375 C 1009.832031 606.894531 1005.84375 607.542969 1001.761719 608.40625 C 995.625 608.179688 995.625 608.476562 995.644531 614.9375 C 994.863281 629.910156 997.285156 646.234375 994.730469 660.574219 C 989.894531 661.472656 987.03125 661.347656 987.945312 655.347656 C 987.945312 603.578125 987.941406 551.808594 987.945312 500.039062 C 987.945312 493.828125 987.484375 494.402344 993.652344 494.402344 C 1045.945312 495.699219 1098.746094 491.683594 1150.796875 496.15625 C 1168.164062 500.039062 1168.019531 520.78125 1168.117188 535.082031 C 1167.953125 556.804688 1168.496094 578.554688 1167.851562 600.265625 C 1167.460938 623.992188 1155.960938 630.121094 1133.730469 629.40625 C 1095.371094 629.386719 1057.011719 629.394531 1018.652344 629.398438 C 1012.9375 629.398438 1012.933594 629.410156 1012.925781 635.300781 C 1012.917969 640.734375 1012.878906 646.167969 1012.945312 651.597656 C 1013.414062 654.597656 1011.675781 656.589844 1010.007812 658.855469 C 1007.625 663.242188 1008.484375 669.320312 1011.933594 672.617188 C 1021.492188 680.703125 1031.683594 664.386719 1024.476562 656.617188 C 1021.730469 653.515625 1022.488281 649.945312 1022.386719 646.261719 C 1022.414062 640.289062 1021.886719 640.90625 1027.820312 640.90625 C 1064.902344 640.832031 1101.988281 641.023438 1139.066406 640.828125 C 1172.53125 641.488281 1178.074219 617.957031 1177.621094 589.578125 C 1176.445312 561.316406 1180.601562 532.324219 1174.523438 504.523438 C 1171.300781 493.566406 1164.160156 486.832031 1152.851562 484.632812 C 1097.230469 480.347656 1040.972656 484.203125 985.140625 482.953125 C 978.734375 482.953125 978.464844 482.265625 978.472656 489.394531 C 978.511719 518.953125 978.488281 548.511719 978.488281 578.074219 M 770.195312 266.398438 C 770.195312 262.328125 770.207031 258.515625 770.191406 254.703125 C 770.179688 250.539062 770.136719 250.371094 765.9375 250.304688 C 754.757812 250.125 743.574219 250.039062 732.394531 249.976562 C 728.914062 249.957031 728.519531 250.417969 728.339844 253.75 C 728.210938 261.09375 728.125 268.441406 728.070312 275.785156 C 727.839844 334.714844 727.472656 393.644531 727.015625 452.574219 C 727.007812 455.425781 727.601562 455.957031 730.308594 456.089844 C 742.289062 456.199219 754.269531 456.324219 766.25 456.425781 C 767.945312 456.390625 770.792969 456.730469 770.90625 454.375 C 771.910156 432.164062 770.128906 408.898438 772.214844 387.195312 C 787.679688 401.980469 809.945312 406.851562 830.882812 403.257812 C 878.359375 397.402344 903.605469 343.96875 889.46875 300.820312 C 877.007812 250.328125 807.230469 230.722656 770.195312 266.398438 M 0.261719 590.605469 C -2.769531 426.09375 121.667969 292.277344 247.824219 202.109375 C 457.59375 57.105469 718.75 -13.585938 972.96875 2.503906 C 1354.058594 25.558594 1595.277344 307.191406 1289.550781 626.851562 C 1063.320312 846.914062 725.957031 946.523438 414.730469 915 C 234.347656 896.003906 8.929688 798.089844 0.261719 590.605469 "/>
</g>
<path fill-rule="nonzero" fill="rgb(77.2995%, 100%, 29.798889%)" fill-opacity="1" d="M 805.820312 356.621094 C 821.144531 356.347656 835.949219 352.4375 849.738281 344.773438 C 901.226562 313.320312 861.40625 281.238281 816.625 292.914062 C 769.167969 299.550781 738.648438 354.425781 805.820312 356.621094 M 770.195312 266.398438 C 807.234375 230.730469 877.007812 250.316406 889.472656 300.820312 C 903.597656 343.964844 878.367188 397.414062 830.882812 403.257812 C 809.949219 406.84375 787.675781 401.988281 772.210938 387.195312 C 770.125 408.902344 771.90625 432.160156 770.90625 454.375 C 770.796875 456.75 767.9375 456.359375 766.25 456.425781 C 754.269531 456.324219 742.289062 456.199219 730.308594 456.089844 C 727.601562 455.957031 727.007812 455.425781 727.015625 452.574219 C 727.476562 393.644531 727.839844 334.714844 728.070312 275.785156 C 728.125 268.441406 728.210938 261.09375 728.339844 253.75 C 728.519531 250.417969 728.914062 249.957031 732.394531 249.976562 C 743.574219 250.039062 754.757812 250.125 765.9375 250.304688 C 770.136719 250.371094 770.175781 250.539062 770.191406 254.703125 C 770.207031 258.515625 770.195312 262.328125 770.195312 266.398438 "/>
<path fill-rule="nonzero" fill="rgb(77.2995%, 100%, 29.798889%)" fill-opacity="1" d="M 978.488281 578.074219 C 978.488281 548.511719 978.511719 518.953125 978.472656 489.394531 C 978.464844 482.265625 978.734375 482.953125 985.140625 482.953125 C 1040.972656 484.203125 1097.230469 480.347656 1152.851562 484.628906 C 1164.160156 486.832031 1171.300781 493.566406 1174.523438 504.523438 C 1180.601562 532.324219 1176.441406 561.316406 1177.621094 589.582031 C 1178.03125 617.921875 1172.613281 641.484375 1139.066406 640.824219 C 1101.988281 641.023438 1064.902344 640.832031 1027.820312 640.90625 C 1021.886719 640.90625 1022.414062 640.289062 1022.386719 646.261719 C 1022.492188 649.941406 1021.726562 653.515625 1024.476562 656.617188 C 1031.71875 664.335938 1021.457031 680.757812 1011.929688 672.617188 C 1003.414062 661.863281 1013.292969 658.75 1012.945312 651.601562 C 1012.878906 646.167969 1012.917969 640.734375 1012.925781 635.300781 C 1012.933594 629.410156 1012.9375 629.398438 1018.652344 629.398438 C 1057.011719 629.394531 1095.371094 629.386719 1133.734375 629.40625 C 1155.820312 630.121094 1167.519531 624.027344 1167.847656 600.265625 C 1168.496094 578.554688 1167.953125 556.804688 1168.117188 535.082031 C 1168.035156 520.78125 1168.160156 500.035156 1150.796875 496.160156 C 1098.746094 491.679688 1045.945312 495.699219 993.652344 494.398438 C 987.484375 494.402344 987.945312 493.828125 987.945312 500.039062 C 987.941406 551.808594 987.945312 603.578125 987.945312 655.347656 C 987.1875 661.027344 989.472656 661.644531 994.730469 660.574219 C 997.285156 646.226562 994.867188 629.914062 995.648438 614.9375 C 995.625 608.476562 995.625 608.179688 1001.761719 608.402344 C 1005.855469 607.535156 1009.816406 606.898438 1014.007812 607.4375 C 1055.71875 607.832031 1097.429688 608.855469 1139.144531 608.328125 C 1144.222656 608.238281 1149.671875 606.75 1150.175781 600.832031 C 1151.871094 579.851562 1150.492188 558.660156 1150.898438 537.605469 C 1150.410156 530.296875 1152.65625 518.191406 1143.132812 516.21875 C 1099.1875 513.933594 1054.910156 516.066406 1010.855469 515.371094 C 1004.53125 515.375 1005.132812 514.671875 1005.128906 520.902344 C 1005.113281 541.675781 1005.125 562.445312 1005.121094 583.21875 C 1005.117188 587.339844 1004.882812 587.476562 1009.277344 587.472656 C 1048.277344 587.457031 1087.277344 587.464844 1126.277344 587.453125 C 1128.890625 587.296875 1133.011719 588.035156 1133.359375 584.449219 C 1133.960938 571.058594 1133.429688 557.605469 1133.585938 544.195312 C 1133.523438 541.128906 1133.527344 536.886719 1129.554688 536.652344 C 1095.710938 535.828125 1061.789062 536.601562 1027.917969 536.347656 C 1025.746094 536.613281 1022.125 535.265625 1022.402344 538.746094 C 1022.355469 545.773438 1022.4375 552.804688 1022.367188 559.835938 C 1024.074219 568.015625 1031.300781 571.203125 1023.265625 580.652344 C 1019.367188 584.707031 1013.601562 584.265625 1010.59375 579.496094 C 1004.792969 572.140625 1012.882812 566.265625 1012.960938 558.945312 C 1013.863281 554.160156 1010.417969 523.5 1015.332031 524.914062 C 1054.488281 524.828125 1093.648438 524.914062 1132.808594 524.886719 C 1138.160156 524.515625 1142.472656 526.675781 1142.960938 532.457031 C 1143.230469 551.910156 1143.367188 571.46875 1142.90625 590.914062 C 1142.148438 597.417969 1136.292969 599.558594 1130.410156 598.964844 C 1087.417969 598.96875 1044.421875 598.972656 1001.425781 598.960938 C 995.035156 598.957031 995.667969 599.648438 995.664062 593.449219 C 995.652344 565.648438 995.65625 537.847656 995.664062 510.042969 C 995.859375 507.976562 994.835938 504.285156 997.726562 503.960938 C 1043.597656 503.78125 1089.472656 503.964844 1135.34375 503.882812 C 1150.902344 503.214844 1160.039062 508.921875 1160.144531 525.460938 C 1160.65625 547.652344 1160.195312 569.878906 1160.332031 592.082031 C 1161.199219 608.964844 1154.535156 621.386719 1135.925781 619.910156 C 1094.050781 619.90625 1052.171875 619.914062 1010.296875 619.914062 C 1004.699219 619.917969 1005.125 619.390625 1005.125 625.042969 C 1005.117188 638.945312 1005.128906 652.847656 1005.117188 666.746094 C 1005.113281 672.324219 1005.097656 672.335938 999.5625 672.34375 C 993.96875 672.355469 988.375 672.351562 982.78125 672.34375 C 981.375 672.230469 978.976562 672.863281 978.652344 671.054688 C 978.214844 640.070312 978.628906 609.0625 978.488281 578.074219 "/>
<path fill-rule="nonzero" fill="rgb(77.2995%, 100%, 29.798889%)" fill-opacity="1" d="M 731.941406 503.898438 C 743.160156 503.894531 754.136719 503.886719 765.328125 503.902344 C 769.871094 503.910156 768.820312 503.507812 771.695312 506.988281 C 791.75 531.246094 811.746094 555.5625 831.789062 579.828125 C 834.722656 584.34375 836.179688 582.9375 838.957031 579.261719 C 857.8125 556.707031 876.664062 534.144531 895.515625 511.582031 C 896.640625 510.234375 897.765625 508.878906 898.902344 507.542969 C 902.554688 503.25 901.007812 503.9375 906.445312 503.910156 C 949.71875 504.675781 936.652344 495.871094 938.636719 538.066406 C 938.5625 581.683594 939.089844 625.304688 938.621094 668.921875 C 938.585938 670.847656 938.222656 671.28125 936.460938 671.289062 C 929.269531 671.332031 922.078125 671.332031 914.886719 671.292969 C 911.625 671.683594 913.019531 667.136719 912.738281 665.070312 C 912.140625 622.207031 913.890625 578.402344 912.125 535.980469 C 886.023438 564.832031 861.882812 596.8125 836.371094 626.636719 C 834.578125 629.164062 832.902344 625.058594 831.570312 623.890625 C 806.820312 595.085938 783.488281 563.25 758.023438 535.925781 C 756.558594 578.578125 758.023438 622.511719 757.511719 665.585938 C 757.507812 671.929688 758.195312 671.304688 751.980469 671.316406 C 740.152344 671.316406 728.324219 671.367188 716.5 671.296875 C 714.875 671.214844 714.46875 670.839844 714.386719 669.367188 C 714.304688 608.8125 714.386719 548.25 714.355469 487.691406 C 714.355469 482.707031 714.089844 482.949219 718.976562 482.949219 C 737.355469 482.949219 755.742188 482.96875 774.117188 482.945312 C 795.292969 502.070312 812.015625 528.753906 831.65625 550.398438 C 835.527344 555.09375 834.785156 554.984375 838.636719 550.320312 C 856.527344 528.628906 874.4375 506.921875 892.300781 485.226562 C 893.488281 483.445312 895.050781 482.902344 897.171875 482.910156 C 915.554688 482.984375 933.933594 482.953125 952.316406 482.953125 C 956.738281 482.191406 955.910156 485.992188 955.898438 489.207031 C 957.648438 544.554688 952.503906 602.054688 957.742188 656.378906 C 965.660156 665.5 952.90625 681.605469 944.554688 669.753906 C 942.035156 665.445312 942.191406 659.714844 945.359375 656.3125 C 950.640625 604.730469 945.464844 550.277344 947.230469 497.765625 C 947.226562 493.226562 947.273438 493.433594 942.65625 493.4375 C 929.070312 493.445312 915.480469 493.542969 901.898438 493.363281 C 898.695312 493.320312 896.652344 494.34375 894.648438 496.800781 C 875.96875 519.710938 857.167969 542.523438 838.402344 565.363281 C 837.183594 566.421875 835.691406 570.234375 833.972656 567.945312 C 814.3125 544.1875 794.722656 520.371094 775.089844 496.589844 C 773.636719 494.230469 771.589844 492.941406 768.746094 493.441406 C 755 493.4375 741.253906 493.4375 727.511719 493.441406 C 725.960938 493.578125 723.328125 492.820312 723.070312 494.933594 C 722.847656 548.613281 723.0625 602.304688 722.988281 655.988281 C 722.988281 661.085938 722.644531 660.855469 728 660.847656 C 734.074219 660.835938 740.148438 660.863281 746.222656 660.824219 C 748.453125 660.808594 748.757812 660.476562 748.832031 658.402344 C 748.898438 614.625 748.792969 570.839844 748.867188 527.0625 C 748.929688 525.1875 749.171875 524.941406 751.1875 524.90625 C 755.164062 525.445312 760.523438 523.273438 763.359375 526.871094 C 786.261719 554.789062 809.300781 582.597656 832.25 610.476562 C 835.289062 614.164062 835.007812 614.078125 838.003906 610.433594 C 860.332031 583.28125 882.648438 556.121094 904.984375 528.976562 C 909.160156 523.910156 907.347656 525.027344 913.75 524.890625 C 916.410156 525.386719 921.816406 523.140625 921.398438 527.492188 C 921.429688 569.996094 921.394531 612.5 921.417969 655 C 921.417969 661.601562 920.730469 660.78125 927.335938 660.839844 C 928.605469 660.886719 930.332031 660.542969 929.953125 658.953125 C 927.6875 612.78125 930.136719 566.324219 929.054688 520.074219 C 927.921875 512.394531 912.125 517.1875 906.328125 515.941406 C 900.828125 516.835938 898.539062 523.808594 894.644531 527.324219 C 875.257812 550.671875 856.328125 574.429688 836.6875 597.558594 C 834.203125 600.371094 830.992188 596.695312 829.46875 594.613281 C 808.8125 569.605469 788.195312 544.566406 767.550781 519.542969 C 762.851562 512.695312 751.78125 517.027344 744.515625 515.972656 C 741.296875 516.042969 740.371094 517.1875 740.261719 520.460938 C 740.226562 558.328125 740.28125 596.203125 740.246094 634.066406 C 740.1875 635.246094 740.476562 636.25 741.355469 637.089844 C 751.175781 645.488281 737.320312 665.855469 728.367188 652.972656 C 725.902344 648.972656 725.585938 644.453125 728.195312 640.710938 C 730.730469 637.078125 730.832031 633.386719 730.828125 629.386719 C 731.691406 587.511719 728.992188 545.675781 731.941406 503.898438 "/>
<path fill-rule="nonzero" fill="rgb(77.2995%, 100%, 29.798889%)" fill-opacity="1" d="M 468.214844 587.464844 C 474.25 684.066406 458.144531 670.636719 373.730469 671.320312 C 353.75 671.324219 333.769531 671.332031 313.789062 671.316406 C 292.800781 671.964844 274.109375 666.15625 272.136719 642.257812 C 269.023438 606.476562 271.46875 570.359375 270.78125 534.457031 C 270.210938 502.648438 275.886719 481.636719 312.550781 482.976562 C 350.433594 482.882812 388.316406 482.988281 426.203125 482.949219 C 442.484375 482.644531 461.714844 486.203125 465.9375 504.546875 C 470.367188 520.03125 468.457031 536.320312 469.050781 552.210938 C 468.34375 555.21875 471.144531 567.820312 466.640625 566.792969 C 459.765625 566.828125 452.890625 566.835938 446.019531 566.796875 C 443.296875 566.78125 443.15625 566.613281 443.136719 563.664062 C 442.726562 549.8125 444.015625 535.765625 442.125 522.023438 C 440.730469 514.449219 432.160156 514.441406 426 514.40625 C 412.253906 514.410156 398.503906 514.40625 384.757812 514.40625 C 358.113281 514.980469 331.277344 513.222656 304.726562 515.160156 C 295.277344 516.996094 297.1875 528.675781 296.722656 535.917969 C 296.722656 564.519531 296.75 593.125 296.792969 621.730469 C 296.265625 630.671875 298.382812 639.511719 309.199219 638.90625 C 347.871094 639.226562 386.566406 638.917969 425.246094 639.015625 C 434.835938 639.632812 442.804688 637.464844 442.746094 626.28125 C 443.082031 619.875 436.46875 617.980469 439.230469 609.1875 C 440.691406 602.585938 449.40625 599.839844 453.660156 605.644531 C 460.589844 615.390625 452.355469 619.148438 451.617188 627.347656 C 451.578125 637.371094 448.503906 648.660156 436.878906 649.617188 C 395.921875 651.695312 354.71875 649.753906 313.679688 650.414062 C 303.707031 650.527344 291.726562 649.144531 289.460938 637.507812 C 285.421875 603.34375 288.765625 568.484375 287.78125 534.085938 C 288.070312 522.777344 287.453125 505.835938 302.023438 503.945312 C 346.875 502.238281 392.289062 502.308594 437.152344 503.914062 C 457.820312 507.953125 450.058594 535.296875 451.871094 550.535156 C 451.929688 556.871094 451.503906 556.242188 458.066406 556.199219 C 459.921875 556.1875 460.308594 555.816406 460.308594 553.941406 C 459.683594 525.15625 467.09375 490.507812 426.070312 493.480469 C 383.195312 494.585938 339.84375 490.941406 297.199219 495.121094 C 284.40625 497.433594 280.277344 510.796875 279.890625 522.242188 C 279.742188 561.148438 278.058594 600.339844 280.707031 639.144531 C 282.453125 658.230469 299.667969 661.425781 315.746094 660.839844 C 357.839844 659.753906 400.335938 663.175781 442.230469 659.261719 C 467.273438 652.71875 458.710938 619.765625 460.316406 600.375 C 462.421875 595.824219 440.308594 598.804688 437.035156 598.035156 C 432.113281 596.746094 435.851562 618.195312 434.285156 622.277344 C 433.714844 628.25 428.683594 629.886719 423.3125 629.429688 C 387.664062 629.429688 352.015625 629.429688 316.371094 629.429688 C 308.671875 630.847656 304.351562 624.523438 304.953125 617.367188 C 304.96875 590.042969 304.96875 562.71875 304.953125 535.394531 C 304.402344 528.59375 308.621094 522.703125 315.945312 524 C 351.75 523.996094 387.554688 524 423.363281 524 C 437.605469 522.078125 434.347656 538.992188 434.597656 548.136719 C 435.132812 554.75 441.972656 559.089844 437.894531 566.496094 C 430.066406 581.304688 414.949219 563.144531 424.195312 553.195312 C 425.359375 551.867188 425.78125 550.550781 425.71875 548.882812 C 425.421875 541.859375 427.472656 534.042969 417.367188 535.402344 C 385.558594 535.386719 353.746094 535.390625 321.9375 535.398438 C 318.882812 535.351562 314.625 535.339844 314.332031 539.265625 C 313.402344 562.546875 314.242188 585.925781 313.980469 609.238281 C 314.105469 612.464844 313.476562 617.464844 317.800781 617.828125 C 351.179688 618.398438 384.617188 617.855469 418.015625 618.027344 C 424.007812 618.832031 426.273438 615.21875 425.679688 609.621094 C 425.71875 603.546875 425.699219 597.476562 425.707031 591.402344 C 425.984375 589.953125 424.984375 587.171875 426.976562 586.773438 C 429.351562 586.523438 431.84375 585.941406 434.085938 586.757812 C 445.257812 588.492188 456.9375 586.988281 468.214844 587.464844 "/>
<path fill-rule="nonzero" fill="rgb(77.2995%, 100%, 29.798889%)" fill-opacity="1" d="M 587.753906 318.6875 C 586.804688 314.109375 589.988281 285.628906 585.871094 286.332031 C 579.636719 286.253906 573.402344 286.308594 567.171875 286.203125 C 563.542969 286.425781 564.71875 282.085938 564.535156 279.71875 C 564.574219 272.210938 564.578125 264.699219 564.652344 257.191406 C 564.734375 252.542969 564.75 252.511719 569.617188 252.5 C 573.933594 252.492188 578.246094 252.523438 582.5625 252.554688 C 588.769531 252.597656 587.863281 253.070312 587.980469 247.210938 C 589.320312 203.53125 579.992188 217.984375 627.347656 215.988281 C 630.207031 216.046875 632.980469 215.640625 632.554688 219.523438 C 633.058594 230.445312 631.34375 241.648438 632.980469 252.394531 C 644.039062 253.441406 655.304688 252.574219 666.441406 252.996094 C 672.480469 252.902344 668.871094 262.714844 669.707031 266.609375 C 669.636719 272.199219 669.597656 277.792969 669.464844 283.382812 C 669.394531 286.449219 668.882812 286.933594 665.714844 286.929688 C 655.164062 286.925781 644.617188 286.71875 634.070312 286.730469 C 629.941406 286.589844 632.777344 300.761719 631.925781 304.125 C 633.457031 328.191406 621.300781 383.570312 663.902344 364.730469 C 667.597656 362.917969 668.375 363.792969 669.496094 366.980469 C 672.300781 374.957031 675.300781 382.867188 678.175781 390.824219 C 679.132812 393.46875 678.890625 394.183594 676.5 395.488281 C 659.929688 404.832031 639.636719 405.113281 621.589844 400.234375 C 586.210938 391.203125 587.039062 348.171875 587.550781 318.6875 C 587.617188 318.6875 587.683594 318.6875 587.753906 318.6875 "/>
<path fill-rule="nonzero" fill="rgb(77.2995%, 100%, 29.798889%)" fill-opacity="1" d="M 691.03125 593.394531 C 691.019531 618.480469 691.046875 643.570312 691.019531 668.65625 C 690.953125 670.96875 690.734375 671.203125 688.625 671.308594 C 675.679688 671.320312 662.726562 671.363281 649.785156 671.292969 C 645.746094 672.253906 648.632812 648.976562 647.8125 645.207031 C 647.886719 642.152344 648.292969 639.246094 644.191406 639.941406 C 615.902344 639.941406 587.609375 639.953125 559.316406 639.914062 C 557.277344 639.914062 555.707031 640.207031 554.484375 642.148438 C 551.960938 646.175781 544.765625 646.324219 541.625 640.9375 C 535.566406 632.25 546.425781 617.820312 554.308594 626.96875 C 555.789062 629.210938 557.660156 629.429688 560 629.425781 C 590.210938 629.378906 620.417969 629.382812 650.628906 629.40625 C 657.25 629.410156 656.460938 628.597656 656.496094 635.265625 C 657.402344 639.285156 654.324219 661.628906 658.507812 660.828125 C 665.539062 660.851562 672.574219 660.824219 679.605469 660.84375 C 681.664062 660.847656 682.398438 660.523438 682.34375 658.003906 C 680.257812 608.160156 686.90625 557.035156 679.046875 507.820312 C 674.957031 495.164062 660.839844 493.636719 649.367188 493.460938 C 611.808594 493.390625 574.242188 493.46875 536.679688 493.4375 C 524.261719 493.433594 508.277344 494.433594 504.15625 508.558594 C 497.15625 556.804688 503.183594 606.660156 501.273438 655.441406 C 501.28125 661.328125 500.699219 660.828125 506.683594 660.84375 C 512.117188 660.855469 517.554688 660.851562 522.988281 660.839844 C 527.570312 661.347656 527.175781 659.253906 527.121094 655.582031 C 527.148438 640.5625 527.082031 625.539062 527.144531 610.523438 C 527.203125 608.820312 527.5 608.488281 529.03125 608.429688 C 575.382812 608.367188 621.738281 608.421875 668.09375 608.414062 C 674.445312 608.417969 673.734375 607.710938 673.761719 613.984375 C 673.789062 620.375 673.8125 626.769531 673.738281 633.160156 C 673.71875 635.007812 674.148438 636.457031 675.421875 637.910156 C 680.671875 643.511719 677.789062 655.558594 669.28125 655.492188 C 661.046875 655.554688 657.84375 643.300781 663.339844 637.839844 C 664.796875 636.230469 665.125 634.613281 665.09375 632.648438 C 664.257812 629.542969 667.21875 618.472656 662.714844 618.964844 C 622.113281 618.929688 581.511719 618.960938 540.914062 618.960938 C 535.25 618.960938 535.769531 618.292969 535.761719 624.046875 C 535.746094 637.789062 535.757812 651.53125 535.757812 665.273438 C 535.414062 667.507812 537.007812 671.609375 533.386719 671.300781 C 521.242188 671.367188 509.089844 671.289062 496.945312 671.324219 C 492.441406 671.328125 492.566406 671.5 492.59375 666.789062 C 493.351562 616.019531 491.003906 565.078125 493.644531 514.394531 C 494.78125 501.777344 500.578125 488.699219 513.953125 485.496094 C 556.796875 479.402344 600.882812 484.59375 644.152344 482.933594 C 652.742188 483.003906 661.507812 483.105469 669.792969 485.601562 C 692.179688 492.234375 690.496094 519.863281 691.050781 538.746094 C 690.992188 556.960938 691.03125 575.179688 691.03125 593.394531 "/>
<path fill-rule="nonzero" fill="rgb(77.2995%, 100%, 29.798889%)" fill-opacity="1" d="M 600.703125 598.1875 C 577.207031 598.179688 553.714844 598.207031 530.222656 598.179688 C 526.308594 598.582031 527.257812 596.136719 527.125 593.359375 C 527.125 574.507812 527.117188 555.65625 527.136719 536.800781 C 526.703125 531.296875 528.40625 524.929688 534.984375 524.902344 C 571.898438 524.820312 608.820312 524.902344 645.738281 524.878906 C 650.648438 524.453125 656.023438 525.957031 656.703125 531.566406 C 657.617188 540.601562 656.992188 549.777344 657.109375 558.855469 C 657.351562 566.105469 665.226562 570.25 659.726562 578.421875 C 651.347656 590.210938 637.554688 574.410156 645.738281 565.125 C 649.78125 559.503906 647.105469 552.113281 647.789062 545.660156 C 647.273438 542.367188 648.496094 536.527344 644.097656 535.828125 C 634.886719 534.996094 625.5625 535.671875 616.316406 535.464844 C 591.234375 535.613281 566.117188 535.171875 541.046875 535.636719 C 535.96875 535.8125 536.640625 541.480469 536.5 545.179688 C 536.476562 557.960938 536.484375 570.742188 536.488281 583.523438 C 536.59375 584.90625 536 587.355469 538.015625 587.402344 C 578.609375 587.574219 619.203125 587.410156 659.796875 587.460938 C 665.679688 587.460938 665.066406 587.949219 665.074219 581.945312 C 665.089844 566.769531 665.117188 551.589844 665.050781 536.410156 C 664.351562 529.253906 666.636719 517.441406 657.429688 515.304688 C 640.957031 513.394531 624.191406 514.976562 607.617188 514.484375 C 580.96875 515.023438 554.164062 513.355469 527.59375 515.222656 C 517.105469 517.023438 519.875 530.269531 519.234375 538.070312 C 519.207031 570.023438 519.226562 601.980469 519.21875 633.933594 C 519.910156 639.167969 525.078125 640.851562 523.289062 647.605469 C 519.171875 664.96875 497.847656 650.738281 507.796875 638.3125 C 509.589844 636.25 509.875 634.21875 509.875 631.789062 C 510.601562 594.304688 508.292969 556.582031 510.867188 519.214844 C 511.769531 507.285156 523.027344 503.367188 533.503906 503.886719 C 575.628906 504.695312 618.011719 502.296875 660.015625 504.871094 C 673.988281 506.609375 674.3125 522.394531 674.261719 533.464844 C 674.289062 553.4375 674.277344 573.410156 674.277344 593.378906 C 674.277344 598.570312 674.664062 598.1875 669.261719 598.1875 C 646.410156 598.191406 623.554688 598.1875 600.703125 598.1875 "/>
<path fill-rule="nonzero" fill="rgb(77.2995%, 100%, 29.798889%)" fill-opacity="1" d="M 518.457031 318.519531 C 518.21875 346.792969 518.082031 375.070312 517.789062 403.339844 C 517.628906 405.339844 517.089844 405.90625 515.195312 406.03125 C 509.839844 405.074219 475.070312 408.4375 476.214844 403.617188 C 476.242188 347.070312 476.578125 290.511719 477.152344 233.96875 C 477.195312 229.796875 477.398438 229.589844 481.449219 229.597656 C 492.320312 229.617188 503.183594 229.671875 514.050781 229.714844 C 518.027344 229.78125 518.992188 229.820312 518.816406 234.171875 C 518.726562 262.285156 518.507812 290.402344 518.566406 318.519531 C 518.527344 318.519531 518.492188 318.519531 518.457031 318.519531 "/>
<path fill-rule="nonzero" fill="rgb(77.2995%, 100%, 29.798889%)" fill-opacity="1" d="M 499.667969 160.554688 C 507.003906 160.191406 531.457031 162.8125 522.539062 174.304688 C 511.34375 181.277344 496.488281 180.546875 484.003906 177.851562 C 458.128906 168.84375 487.007812 158.757812 499.667969 160.554688 "/>
<path fill-rule="nonzero" fill="rgb(77.2995%, 100%, 29.798889%)" fill-opacity="1" d="M 498.953125 186.289062 C 533.472656 186.957031 521.429688 204.472656 494.523438 201.359375 C 466.324219 198.964844 477.265625 184.636719 498.953125 186.289062 "/>
<path fill-rule="nonzero" fill="rgb(77.2995%, 100%, 29.798889%)" fill-opacity="1" d="M 499.589844 218.679688 C 495.785156 218.863281 479.484375 216.476562 487.972656 210.785156 C 501.15625 204.277344 530.066406 215.785156 499.589844 218.679688 "/>
<path fill-rule="nonzero" fill="rgb(0.39978%, 0.39978%, 0%)" fill-opacity="1" d="M 805.820312 356.621094 C 738.644531 354.421875 769.171875 299.546875 816.625 292.914062 C 861.398438 281.238281 901.234375 313.3125 849.738281 344.777344 C 835.949219 352.4375 821.144531 356.347656 805.820312 356.621094 "/>
</svg>
