<?xml version="1.0" encoding="UTF-8"?>
<!-- ITP Camp luggage / bag tag — 55 × 90 mm rounded rectangle with a round
     fixing hole AND a strap slot near the top. Outline, hole, and slot are
     SEPARATE subpaths. viewBox = mm. -->
<svg xmlns="http://www.w3.org/2000/svg" width="55mm" height="90mm" viewBox="0 0 55 90">
  <path fill="none" stroke="#000000" stroke-width="0.5"
        d="M 6 0 L 49 0 Q 55 0 55 6 L 55 84 Q 55 90 49 90 L 6 90 Q 0 90 0 84 L 0 6 Q 0 0 6 0 Z"/>
  <path fill="none" stroke="#000000" stroke-width="0.5"
        d="M 24.5 8 a 3 3 0 1 0 6 0 a 3 3 0 1 0 -6 0 Z"/>
  <path fill="none" stroke="#000000" stroke-width="0.5"
        d="M 19 15 L 36 15 Q 38 15 38 17 Q 38 19 36 19 L 19 19 Q 17 19 17 17 Q 17 15 19 15 Z"/>
</svg>
