<svg xmlns="http://www.w3.org/2000/svg" width="100.01mm" height="100.01mm" viewBox="0 0 378 378">
  <g id="jali" opacity="1">
    <g transform="translate(0 0)">
      <path d="M -0 4.405 C -0 8.600, 0.226 8.943, 4.750 11.611 C 10.382 14.932, 27.618 23.451, 30.574 24.375 C 34.247 25.523, 37.697 30.326, 40.003 37.500 C 41.240 41.350, 43.051 45.400, 44.028 46.500 C 47.139 50.002, 51.637 59.267, 54.510 68.087 L 57.294 76.637 53.885 82.068 C 52.010 85.056, 48.480 92, 46.042 97.500 C 40.751 109.436, 39.220 112, 37.388 112 C 35.510 112, 28 105.107, 28 103.384 C 28 101.050, 29.992 101.848, 31.039 104.602 C 31.715 106.380, 32.524 107.013, 33.596 106.602 C 34.458 106.271, 35.352 106, 35.582 106 C 37.174 106, 35.433 101.366, 32.671 98.253 C 30.839 96.189, 27.858 92.312, 26.046 89.639 C 21.518 82.958, 16.880 81.006, 7.250 81.726 L 0 82.269 0.008 99.384 L 0.015 116.500 4.077 118.820 C 7.857 120.979, 8.304 121.031, 10.534 119.570 C 11.852 118.706, 13.901 118, 15.087 118 C 16.819 118, 17.017 117.725, 16.087 116.605 C 15.451 115.838, 15.058 114.601, 15.215 113.855 C 15.405 112.953, 14.498 112.500, 12.500 112.500 C 8.487 112.500, 5.349 110.575, 3.485 106.970 C 2.110 104.312, 2.109 104, 3.474 104 C 4.313 104, 5 104.450, 5 105 C 5 105.550, 5.675 106, 6.500 106 C 7.325 106, 8 105.287, 8 104.417 C 8 103.546, 8.338 102.983, 8.750 103.167 C 18.047 107.296, 18 107.256, 18 111.039 C 18 113.240, 18.784 115.598, 19.970 116.966 C 21.054 118.215, 22.202 120.061, 22.521 121.068 C 22.841 122.074, 24.004 123.184, 25.106 123.534 C 26.208 123.884, 26.942 124.674, 26.736 125.291 C 26.531 125.907, 20.431 130.234, 13.181 134.906 C 0.108 143.331, 0 143.432, 0 147.169 C 0 151.287, 0.843 151.400, 6 147.974 C 7.375 147.060, 10.300 145.186, 12.500 143.808 C 23.997 136.609, 28.019 133.788, 28.816 132.365 C 29.299 131.501, 30.551 130.962, 31.597 131.167 C 33.219 131.485, 33.516 132.496, 33.609 138.020 C 33.669 141.584, 34.074 150.688, 34.509 158.250 C 35.137 169.174, 35.036 172, 34.018 172 C 32.646 172, 19.346 165.382, 9.500 159.800 C -0.251 154.273, -0 154.258, -0 160.372 L 0 165.682 5.250 168.540 C 8.138 170.112, 13.875 173.104, 18 175.189 C 25.742 179.103, 26.946 180.698, 23.497 182.470 C 22.395 183.037, 18.795 185.145, 15.497 187.155 C 12.199 189.166, 7.362 191.843, 4.750 193.105 C 0.065 195.367, 0 195.464, 0 200.183 L 0 204.968 3.750 203.263 C 5.813 202.326, 9.300 200.371, 11.500 198.919 C 13.700 197.468, 18.987 194.160, 23.250 191.569 C 30.929 186.901, 32.167 185.595, 29.750 184.708 C 28.762 184.346, 28.757 183.977, 29.726 182.949 C 31.572 180.990, 34.884 184.382, 34.777 188.122 C 34.732 189.738, 35.305 192.200, 36.051 193.595 C 37.179 195.704, 37.183 196.269, 36.075 196.954 C 35.310 197.427, 34.690 199.743, 34.621 202.390 L 34.500 207.002 42.203 207.001 L 49.906 207 49.325 201.750 C 48.690 196.012, 45.589 187.734, 43.390 185.909 C 42.626 185.274, 42 184.413, 42 183.995 C 42 183.577, 47.288 183.279, 53.750 183.333 C 60.213 183.388, 69.450 182.904, 74.277 182.258 C 85.314 180.781, 86.288 181.101, 85.274 185.866 C 84.346 190.221, 84.393 198.088, 85.376 203.250 L 86.091 207 93.154 207 C 99.971 207, 100.198 206.922, 99.680 204.750 C 99.385 203.512, 98.846 200.250, 98.482 197.500 C 98.118 194.750, 96.981 191.308, 95.955 189.850 C 94.928 188.393, 93.804 186.068, 93.457 184.684 C 92.736 181.811, 91.578 181.848, 110.900 184.133 C 120.130 185.225, 121.831 185.174, 126.034 183.682 C 128.638 182.757, 131.773 182, 133.001 182 C 134.928 182, 135.144 182.376, 134.578 184.750 C 134.217 186.263, 133.655 191.887, 133.328 197.250 L 132.733 207 139.454 207 L 146.176 207 145.504 202.750 C 144.545 196.685, 142.228 188.980, 140.873 187.347 C 140.236 186.580, 140.002 185.664, 140.353 185.313 C 141.078 184.589, 143.341 185.671, 150.500 190.169 C 153.250 191.896, 160.588 195.906, 166.806 199.078 C 173.024 202.251, 178.649 205.277, 179.306 205.802 C 179.963 206.327, 184.881 206.793, 190.236 206.839 C 198.818 206.913, 200.091 206.698, 200.986 205.027 C 202.133 202.884, 202.371 192.892, 201.235 194.610 C 200.831 195.221, 199.150 196.396, 197.500 197.220 C 191.657 200.140, 189.683 200.102, 183.945 196.956 C 169.648 189.120, 158.178 183.603, 155 183.036 C 151.528 182.416, 151.577 182.373, 161.104 177.798 C 166.387 175.261, 171.567 172.095, 172.615 170.762 C 173.664 169.429, 175.710 167.700, 177.162 166.919 C 178.615 166.139, 181.432 164.202, 183.423 162.615 C 186.682 160.018, 187.216 159.878, 188.772 161.218 C 191.966 163.970, 197.219 165.983, 199.628 165.379 C 201.761 164.843, 202 164.234, 202 159.333 C 202 156.203, 201.602 154.128, 201.064 154.460 C 200.483 154.819, 200.483 153.802, 201.064 151.776 C 201.579 149.981, 202 147.005, 202 145.161 L 202 141.809 196.515 144.905 C 193.498 146.607, 190.070 148, 188.896 148 C 187.722 148, 184.228 146.462, 181.131 144.583 C 178.034 142.703, 169.086 137.933, 161.247 133.982 C 143.210 124.891, 142.345 123.866, 152.665 123.800 C 159.096 123.759, 161.645 122.838, 164.200 119.633 C 165.782 117.649, 165.991 117.619, 167.200 119.205 C 168.429 120.817, 172.978 123, 175.108 123 C 176.828 123, 186 113.790, 186 112.063 C 186 111.148, 186.452 109.948, 187.004 109.396 C 187.622 108.778, 187.754 105.387, 187.347 100.580 C 186.725 93.215, 186.467 92.549, 182.843 88.962 C 180.730 86.869, 179 84.630, 179 83.985 C 179 82.353, 160.432 83.770, 156.671 85.689 C 151.876 88.137, 149.186 98.043, 152.435 101.292 C 153.682 102.539, 153.569 103.172, 151.576 106.114 C 150.315 107.976, 148.955 110.538, 148.556 111.807 C 147.760 114.333, 145.141 114.445, 144.037 112 C 140.256 103.629, 133.843 92.484, 130.283 88.096 C 126.808 83.813, 123 77.224, 123 75.495 C 123 75.351, 123.827 75.017, 124.839 74.752 C 126.915 74.210, 131.488 66.607, 132.494 62.026 C 132.992 59.760, 132.762 58.846, 131.580 58.392 C 129.410 57.560, 129.599 56.262, 132 55.500 C 133.572 55.001, 134 53.987, 134 50.761 C 134 48.504, 134.630 45.947, 135.400 45.079 C 136.170 44.210, 137.185 41.025, 137.656 38 C 138.353 33.519, 138.900 32.444, 140.602 32.201 C 142.341 31.952, 142.708 32.448, 142.785 35.152 C 142.953 41.044, 144.676 42.870, 150.384 43.203 C 156.466 43.557, 157.561 45.633, 153.019 48.200 C 150.306 49.734, 150.112 50.164, 151.038 52.601 C 151.896 54.855, 151.707 55.683, 149.899 57.608 C 147.294 60.380, 147.756 64.385, 151.227 69.119 C 153.982 72.877, 156.652 74.085, 164.500 75.126 C 177.782 76.888, 178.325 77.084, 182.570 81.636 C 187.130 86.525, 188.605 86.885, 192.273 84 C 195.304 81.616, 195.622 81.572, 196.337 83.436 C 196.640 84.226, 196 86.001, 194.915 87.381 C 193.161 89.611, 192.984 91.114, 193.318 100.947 C 193.728 112.997, 194.992 116, 199.655 116 L 202 116 202 98.607 C 202 84.069, 201.754 81.119, 200.500 80.638 C 199.564 80.279, 199 78.754, 199 76.582 C 199 73.725, 198.329 72.600, 195.250 70.301 C 193.188 68.761, 190.912 66.713, 190.193 65.751 C 188.376 63.316, 186.515 63.565, 184.592 66.500 C 183.691 67.875, 182.344 69, 181.599 69 C 180.854 69, 179.685 69.675, 179 70.500 C 177.415 72.410, 172.613 72.443, 171.046 70.555 C 170.386 69.760, 167.518 67.645, 164.673 65.855 C 157.798 61.529, 153.973 58.361, 154.722 57.611 C 156.211 56.122, 159.858 57.242, 162.500 60 C 164.655 62.249, 166.278 63, 168.987 63 C 170.974 63, 173.133 63.532, 173.783 64.183 C 175.452 65.852, 176.554 64.372, 175.020 62.524 C 173.911 61.188, 174.541 60.981, 180.128 60.842 C 183.632 60.756, 187.063 60.706, 187.750 60.731 C 189.322 60.790, 189.305 60.459, 187.458 55.157 C 185.191 48.646, 182.486 43.772, 179.696 41.168 C 176.752 38.421, 170.219 37.277, 167.078 38.958 C 165.138 39.997, 164.235 39.657, 159.684 36.177 C 150.652 29.271, 147.880 27.940, 144 28.646 C 140.546 29.274, 140.524 29.256, 142.300 27.257 C 143.290 26.143, 146.215 24.674, 148.800 23.992 C 156.766 21.891, 161.700 20.156, 168.568 17.042 C 174.803 14.215, 176.609 12.981, 185.649 5.377 C 189.268 2.331, 189.451 2.290, 192.931 3.726 C 194.894 4.536, 197.210 5.829, 198.079 6.600 C 200.806 9.019, 202 8.227, 202 4 L 202 0 188.648 -0 C 176.114 -0, 175.088 0.149, 171.898 2.427 C 165.678 6.868, 153.877 13, 151.548 13 C 149.071 13, 148 10.095, 148 3.375 L 148 0 141.415 0 L 134.829 0 135.518 7.353 C 136.136 13.946, 136.016 14.784, 134.354 15.455 C 133.334 15.867, 125.628 16.389, 117.230 16.615 L 101.960 17.025 100.980 14.447 C 100.441 13.030, 100 9.199, 100 5.935 L 100 0 93.500 0 L 87 0 87 7.441 C 87 11.922, 86.548 15.162, 85.863 15.585 C 85.237 15.972, 77.832 16.406, 69.408 16.551 C 52.004 16.849, 52.016 16.854, 51.318 9.249 C 50.446 -0.252, 50.643 0, 44.083 0 C 38.314 0, 38.207 0.051, 38.302 2.750 C 38.549 9.735, 37.918 18, 37.138 18 C 35.939 18, 12.644 6.736, 6.200 3.040 C 3.285 1.368, 0.698 -0, 0.450 -0 C 0.203 -0, -0 1.982, -0 4.405 Z M 0.272 5 C 0.272 7.475, 0.467 8.488, 0.706 7.250 C 0.944 6.012, 0.944 3.988, 0.706 2.750 C 0.467 1.512, 0.272 2.525, 0.272 5 Z M 137.500 19.713 C 136.400 19.978, 135.050 20.659, 134.500 21.226 C 133.817 21.932, 134.348 22.059, 136.181 21.627 C 137.655 21.281, 140.017 21.436, 141.431 21.974 C 142.844 22.511, 144 22.769, 144 22.547 C 144 21.809, 140.869 18.998, 140.179 19.116 C 139.805 19.180, 138.600 19.448, 137.500 19.713 Z M 86 20.986 C 84.865 21.730, 85.351 21.976, 88 21.998 C 89.925 22.014, 92.625 22.277, 94 22.582 C 95.831 22.989, 96.099 22.882, 95 22.184 C 92.503 20.595, 87.593 19.942, 86 20.986 Z M 41.250 22.689 C 42.212 22.941, 43.788 22.941, 44.750 22.689 C 45.712 22.438, 44.925 22.232, 43 22.232 C 41.075 22.232, 40.288 22.438, 41.250 22.689 Z M 101 24.583 C 99.625 25.346, 97.113 25.977, 95.417 25.985 C 93.721 25.993, 92.051 26.282, 91.706 26.627 C 91.361 26.972, 93.022 29.143, 95.397 31.452 C 97.772 33.760, 102.084 39.665, 104.980 44.574 C 110.554 54.023, 115.643 61, 116.963 61 C 117.400 61, 118.335 59.537, 119.041 57.750 C 121.999 50.257, 132.278 30.399, 133.825 29.188 C 135.387 27.965, 135.382 27.788, 133.741 26.571 C 132.543 25.683, 127.921 25.212, 119.255 25.097 C 112.254 25.003, 106.093 24.493, 105.563 23.963 C 104.396 22.796, 104.164 22.828, 101 24.583 Z M 46.750 25.737 C 42.280 26.195, 42.075 27.539, 45.904 31.293 C 47.470 32.829, 50.720 37.686, 53.126 42.087 C 58.320 51.588, 64.083 60.214, 65.558 60.694 C 66.140 60.884, 67.665 58.442, 68.948 55.269 C 70.231 52.096, 72.857 46.575, 74.784 43 C 76.712 39.425, 78.965 35.150, 79.791 33.500 C 80.617 31.850, 81.974 29.710, 82.807 28.744 C 83.640 27.778, 84.136 26.828, 83.911 26.633 C 83.275 26.083, 50.972 25.304, 46.750 25.737 Z M 86.167 36.309 C 85.628 36.964, 84.891 39.750, 84.529 42.500 C 83.345 51.500, 82.888 52.901, 80.931 53.522 C 78.870 54.176, 78.096 59.201, 80.125 58.750 C 82.464 58.230, 81.949 60.851, 78.780 65.591 C 75.668 70.248, 73.555 71.502, 73.455 68.750 C 73.389 66.959, 70.799 67.731, 68.750 70.153 C 66.431 72.894, 66.534 74.355, 69 73.710 C 70.100 73.423, 71 73.550, 71 73.993 C 71 75.346, 77.946 85.286, 81.488 89 C 83.323 90.925, 86.481 95.537, 88.504 99.250 C 92.584 106.734, 95.378 108.110, 96.463 103.168 C 96.805 101.610, 99.478 96.088, 102.402 90.897 C 105.327 85.706, 108.026 80.492, 108.401 79.312 C 108.868 77.842, 107.992 75.009, 105.625 70.332 C 101.470 62.122, 92.856 43.748, 91.087 39.322 C 89.664 35.761, 87.638 34.521, 86.167 36.309 Z M 112.355 72.483 C 112.710 73.407, 113 74.352, 113 74.582 C 113 74.812, 113.675 75, 114.500 75 C 116.645 75, 116.351 73.701, 113.855 72.142 C 111.956 70.955, 111.784 70.994, 112.355 72.483 Z M 0.413 99.500 C 0.414 109.400, 0.564 113.315, 0.746 108.199 C 0.928 103.084, 0.927 94.984, 0.744 90.199 C 0.561 85.415, 0.412 89.600, 0.413 99.500 Z M 61.260 85.238 C 58.861 88.251, 56.051 96.355, 56.620 98.621 C 57.713 102.976, 55.970 109.843, 52.442 115.086 C 50.551 117.897, 49.265 120.619, 49.584 121.136 C 50.232 122.185, 81.124 121.659, 82.888 120.570 C 83.845 119.977, 80.955 113.259, 77.048 107 C 76.533 106.175, 73.567 101.131, 70.457 95.790 C 64.103 84.880, 62.766 83.347, 61.260 85.238 Z M 111.126 91.752 C 110.073 93.816, 108.686 99.104, 108.043 103.502 C 107.358 108.191, 106.073 112.621, 104.937 114.210 C 100.596 120.282, 103.199 122.005, 116.684 121.986 C 133.482 121.963, 133.727 121.555, 125.646 107.086 C 122.702 101.814, 119.983 96.525, 119.605 95.332 C 118.752 92.643, 115.170 88, 113.948 88 C 113.449 88, 112.179 89.689, 111.126 91.752 Z M 19 94 C 19 94.550, 19.450 95, 20 95 C 20.550 95, 21 94.550, 21 94 C 21 93.450, 20.550 93, 20 93 C 19.450 93, 19 93.450, 19 94 Z M 159.459 99.067 C 159.096 99.653, 159.040 100.373, 159.333 100.667 C 160.050 101.383, 162 100.121, 162 98.941 C 162 97.663, 160.274 97.748, 159.459 99.067 Z M 18 102 C 19.939 103.253, 21 103.253, 21 102 C 21 101.450, 19.988 101.007, 18.750 101.015 C 16.931 101.028, 16.787 101.216, 18 102 Z M 168.109 102.369 C 167.454 103.158, 165.924 104.056, 164.709 104.365 C 161.660 105.139, 159.310 108.947, 161.158 110.119 C 163.412 111.548, 167.332 111.095, 170.750 109.011 C 174.626 106.648, 174.721 106.026, 171.650 103.141 C 169.643 101.255, 169.127 101.143, 168.109 102.369 Z M 129.079 106.583 C 129.127 107.748, 129.364 107.985, 129.683 107.188 C 129.972 106.466, 129.936 105.603, 129.604 105.271 C 129.272 104.939, 129.036 105.529, 129.079 106.583 Z M 42.374 117.467 C 41.443 119.895, 42.340 120.817, 44.750 119.911 C 45.987 119.445, 47 118.375, 47 117.532 C 47 115.565, 43.125 115.510, 42.374 117.467 Z M 87 119.755 C 87 120.305, 87.675 121.315, 88.500 122 C 89.337 122.694, 90 122.803, 90 122.245 C 90 121.695, 89.325 120.685, 88.500 120 C 87.663 119.306, 87 119.197, 87 119.755 Z M 136 121.300 C 136 123.035, 140.433 127.234, 141.324 126.342 C 142.780 124.887, 141.865 122.982, 139 121.500 C 136.579 120.248, 136 120.209, 136 121.300 Z M 39 123.500 C 37.980 124.729, 38.049 125, 39.378 125 C 40.270 125, 41 124.325, 41 123.500 C 41 122.675, 40.830 122, 40.622 122 C 40.415 122, 39.685 122.675, 39 123.500 Z M 90 125.873 C 90 126.472, 91.069 127.230, 92.375 127.558 C 93.948 127.953, 94.761 128.888, 94.782 130.327 C 94.800 131.522, 95.744 134.563, 96.881 137.084 C 98.426 140.513, 102.839 164.887, 103.015 170.973 C 103.095 173.729, 105.393 174.285, 118.142 174.631 C 125.489 174.830, 131.999 174.657, 132.608 174.247 C 134.265 173.130, 135.190 131.287, 133.572 130.666 C 132.907 130.411, 130.373 130.566, 127.940 131.011 C 125.508 131.456, 123.111 131.569, 122.615 131.262 C 122.118 130.955, 116.576 130.658, 110.299 130.602 C 99.803 130.508, 98.750 130.324, 97.193 128.311 C 95.321 125.890, 90 124.086, 90 125.873 Z M 41.575 131.879 C 41.187 132.506, 41.758 134.148, 42.843 135.528 C 45.401 138.780, 48.515 149.126, 50.518 161.031 C 51.394 166.239, 52.343 171.291, 52.625 172.257 C 53.085 173.827, 54.584 174.006, 66.696 173.935 C 74.152 173.890, 81.278 173.465, 82.530 172.989 C 84.746 172.146, 84.809 171.746, 84.872 158.034 C 84.907 150.285, 85.444 142.250, 86.065 140.179 C 86.685 138.107, 87.037 135.307, 86.847 133.956 C 86.542 131.796, 86.019 131.511, 82.500 131.594 C 80.300 131.646, 73.550 131.802, 67.500 131.940 C 61.450 132.078, 53.300 131.864, 49.390 131.465 C 44.435 130.959, 42.066 131.084, 41.575 131.879 Z M 142.460 137.750 C 144.062 141.906, 146.078 152.195, 147.018 161 C 148.209 172.173, 148.690 174, 150.441 174 C 152.010 174, 173.485 159.762, 176.934 156.435 L 179.368 154.087 174.934 152.077 C 172.495 150.971, 167.350 148.295, 163.500 146.130 C 145.249 135.865, 141.097 134.211, 142.460 137.750 Z M 0.272 147 C 0.272 149.475, 0.467 150.488, 0.706 149.250 C 0.944 148.012, 0.944 145.988, 0.706 144.750 C 0.467 143.512, 0.272 144.525, 0.272 147 Z M 0.310 160.500 C 0.315 163.800, 0.502 165.029, 0.725 163.232 C 0.947 161.435, 0.943 158.735, 0.715 157.232 C 0.486 155.729, 0.304 157.200, 0.310 160.500 Z M 193 157.724 C 193 158.161, 193.900 159.081, 195 159.768 C 196.108 160.460, 197 160.583, 197 160.044 C 197 159.508, 196.100 158.589, 195 158 C 193.900 157.411, 193 157.287, 193 157.724 Z M 0.300 200 C 0.300 203.025, 0.487 204.262, 0.716 202.750 C 0.945 201.238, 0.945 198.762, 0.716 197.250 C 0.487 195.738, 0.300 196.975, 0.300 200 Z" fill="#000000" fill-rule="evenodd" stroke="none" data-role="engrave"/>
      <path d="M 66.638 1.500 C 67.414 3.520, 73 3.520, 73 1.500 C 73 0.455, 71.948 0, 69.531 0 C 66.859 0, 66.195 0.344, 66.638 1.500 Z" fill="#000000" fill-rule="evenodd" stroke="none" data-role="engrave"/>
      <path d="M 114 1.941 C 114 3.509, 115.767 4.097, 118.454 3.422 C 122.158 2.493, 121.570 1, 117.500 1 C 115.575 1, 114 1.423, 114 1.941 Z" fill="#000000" fill-rule="evenodd" stroke="none" data-role="engrave"/>
      <path d="M 26.338 30.915 C 24.599 31.987, 22.799 33.484, 22.338 34.242 C 20.327 37.551, 16.625 39.019, 11.882 38.390 C 9.198 38.034, 5.691 38.277, 3.611 38.963 L 0 40.155 -0 50.969 C -0 61.670, 0.026 61.790, 2.500 62.411 C 3.875 62.756, 5 63.667, 5 64.436 C 5 65.204, 5.484 65.995, 6.075 66.192 C 7.952 66.817, 6.003 72, 3.892 72 C 2.851 72, 2 71.352, 2 70.559 C 2 69.766, 1.550 68.840, 1 68.500 C 0.417 68.139, 0 69.156, 0 70.941 C 0 73.946, 0.088 74, 5.014 74 C 7.771 74, 10.853 74.516, 11.863 75.146 C 14.396 76.728, 18.080 75.596, 21.720 72.117 C 23.408 70.504, 25.961 68.416, 27.394 67.477 C 30.228 65.621, 30.640 63.133, 28.927 58.220 C 28.141 55.965, 28.167 54.557, 29.025 52.954 C 30.513 50.173, 28.674 48.090, 23.861 47.105 C 19.591 46.232, 19.347 43.605, 23.500 43.226 C 25.150 43.075, 27.504 42.731, 28.732 42.461 C 33.548 41.403, 35.970 29.830, 31.500 29.233 C 30.400 29.086, 28.077 29.842, 26.338 30.915 Z M 14.658 64.449 C 14.286 65.418, 14.582 65.714, 15.551 65.342 C 17.133 64.735, 17.545 63, 16.107 63 C 15.616 63, 14.964 63.652, 14.658 64.449 Z" fill="#000000" fill-rule="evenodd" stroke="none" data-role="engrave"/>
      <path d="M 197.743 40.084 C 192.417 43.186, 190.003 57.144, 194.677 57.810 C 195.875 57.981, 197.393 58.768, 198.050 59.560 C 200.470 62.476, 201 60.759, 201 50 C 201 43.950, 200.662 39.014, 200.250 39.030 C 199.838 39.047, 198.709 39.521, 197.743 40.084 Z" fill="#000000" fill-rule="evenodd" stroke="none" data-role="engrave"/>
      <path d="M 68.750 199.429 C 66.554 201.049, 66.513 202.599, 68.643 203.417 C 70.796 204.243, 71.218 203.709, 70.825 200.660 C 70.540 198.446, 70.286 198.296, 68.750 199.429 Z" fill="#000000" fill-rule="evenodd" stroke="none" data-role="engrave"/>
      <path d="M 114.065 202.879 C 112.686 205.454, 114.064 206.306, 117.497 205.001 C 120.530 203.848, 120.382 201.653, 117.239 201.189 C 115.936 200.997, 114.728 201.640, 114.065 202.879 Z" fill="#000000" fill-rule="evenodd" stroke="none" data-role="engrave"/>
    </g>
    <g transform="translate(201 0)">
      <path d="M -0 4.405 C -0 8.600, 0.226 8.943, 4.750 11.611 C 10.382 14.932, 27.618 23.451, 30.574 24.375 C 34.247 25.523, 37.697 30.326, 40.003 37.500 C 41.240 41.350, 43.051 45.400, 44.028 46.500 C 47.139 50.002, 51.637 59.267, 54.510 68.087 L 57.294 76.637 53.885 82.068 C 52.010 85.056, 48.480 92, 46.042 97.500 C 40.751 109.436, 39.220 112, 37.388 112 C 35.510 112, 28 105.107, 28 103.384 C 28 101.050, 29.992 101.848, 31.039 104.602 C 31.715 106.380, 32.524 107.013, 33.596 106.602 C 34.458 106.271, 35.352 106, 35.582 106 C 37.174 106, 35.433 101.366, 32.671 98.253 C 30.839 96.189, 27.858 92.312, 26.046 89.639 C 21.518 82.958, 16.880 81.006, 7.250 81.726 L 0 82.269 0.008 99.384 L 0.015 116.500 4.077 118.820 C 7.857 120.979, 8.304 121.031, 10.534 119.570 C 11.852 118.706, 13.901 118, 15.087 118 C 16.819 118, 17.017 117.725, 16.087 116.605 C 15.451 115.838, 15.058 114.601, 15.215 113.855 C 15.405 112.953, 14.498 112.500, 12.500 112.500 C 8.487 112.500, 5.349 110.575, 3.485 106.970 C 2.110 104.312, 2.109 104, 3.474 104 C 4.313 104, 5 104.450, 5 105 C 5 105.550, 5.675 106, 6.500 106 C 7.325 106, 8 105.287, 8 104.417 C 8 103.546, 8.338 102.983, 8.750 103.167 C 18.047 107.296, 18 107.256, 18 111.039 C 18 113.240, 18.784 115.598, 19.970 116.966 C 21.054 118.215, 22.202 120.061, 22.521 121.068 C 22.841 122.074, 24.004 123.184, 25.106 123.534 C 26.208 123.884, 26.942 124.674, 26.736 125.291 C 26.531 125.907, 20.431 130.234, 13.181 134.906 C 0.108 143.331, 0 143.432, 0 147.169 C 0 151.287, 0.843 151.400, 6 147.974 C 7.375 147.060, 10.300 145.186, 12.500 143.808 C 23.997 136.609, 28.019 133.788, 28.816 132.365 C 29.299 131.501, 30.551 130.962, 31.597 131.167 C 33.219 131.485, 33.516 132.496, 33.609 138.020 C 33.669 141.584, 34.074 150.688, 34.509 158.250 C 35.137 169.174, 35.036 172, 34.018 172 C 32.646 172, 19.346 165.382, 9.500 159.800 C -0.251 154.273, -0 154.258, -0 160.372 L 0 165.682 5.250 168.540 C 8.138 170.112, 13.875 173.104, 18 175.189 C 25.742 179.103, 26.946 180.698, 23.497 182.470 C 22.395 183.037, 18.795 185.145, 15.497 187.155 C 12.199 189.166, 7.362 191.843, 4.750 193.105 C 0.065 195.367, 0 195.464, 0 200.183 L 0 204.968 3.750 203.263 C 5.813 202.326, 9.300 200.371, 11.500 198.919 C 13.700 197.468, 18.987 194.160, 23.250 191.569 C 30.929 186.901, 32.167 185.595, 29.750 184.708 C 28.762 184.346, 28.757 183.977, 29.726 182.949 C 31.572 180.990, 34.884 184.382, 34.777 188.122 C 34.732 189.738, 35.305 192.200, 36.051 193.595 C 37.179 195.704, 37.183 196.269, 36.075 196.954 C 35.310 197.427, 34.690 199.743, 34.621 202.390 L 34.500 207.002 42.203 207.001 L 49.906 207 49.325 201.750 C 48.690 196.012, 45.589 187.734, 43.390 185.909 C 42.626 185.274, 42 184.413, 42 183.995 C 42 183.577, 47.288 183.279, 53.750 183.333 C 60.213 183.388, 69.450 182.904, 74.277 182.258 C 85.314 180.781, 86.288 181.101, 85.274 185.866 C 84.346 190.221, 84.393 198.088, 85.376 203.250 L 86.091 207 93.154 207 C 99.971 207, 100.198 206.922, 99.680 204.750 C 99.385 203.512, 98.846 200.250, 98.482 197.500 C 98.118 194.750, 96.981 191.308, 95.955 189.850 C 94.928 188.393, 93.804 186.068, 93.457 184.684 C 92.736 181.811, 91.578 181.848, 110.900 184.133 C 120.130 185.225, 121.831 185.174, 126.034 183.682 C 128.638 182.757, 131.773 182, 133.001 182 C 134.928 182, 135.144 182.376, 134.578 184.750 C 134.217 186.263, 133.655 191.887, 133.328 197.250 L 132.733 207 139.454 207 L 146.176 207 145.504 202.750 C 144.545 196.685, 142.228 188.980, 140.873 187.347 C 140.236 186.580, 140.002 185.664, 140.353 185.313 C 141.078 184.589, 143.341 185.671, 150.500 190.169 C 153.250 191.896, 160.588 195.906, 166.806 199.078 C 173.024 202.251, 178.649 205.277, 179.306 205.802 C 179.963 206.327, 184.881 206.793, 190.236 206.839 C 198.818 206.913, 200.091 206.698, 200.986 205.027 C 202.133 202.884, 202.371 192.892, 201.235 194.610 C 200.831 195.221, 199.150 196.396, 197.500 197.220 C 191.657 200.140, 189.683 200.102, 183.945 196.956 C 169.648 189.120, 158.178 183.603, 155 183.036 C 151.528 182.416, 151.577 182.373, 161.104 177.798 C 166.387 175.261, 171.567 172.095, 172.615 170.762 C 173.664 169.429, 175.710 167.700, 177.162 166.919 C 178.615 166.139, 181.432 164.202, 183.423 162.615 C 186.682 160.018, 187.216 159.878, 188.772 161.218 C 191.966 163.970, 197.219 165.983, 199.628 165.379 C 201.761 164.843, 202 164.234, 202 159.333 C 202 156.203, 201.602 154.128, 201.064 154.460 C 200.483 154.819, 200.483 153.802, 201.064 151.776 C 201.579 149.981, 202 147.005, 202 145.161 L 202 141.809 196.515 144.905 C 193.498 146.607, 190.070 148, 188.896 148 C 187.722 148, 184.228 146.462, 181.131 144.583 C 178.034 142.703, 169.086 137.933, 161.247 133.982 C 143.210 124.891, 142.345 123.866, 152.665 123.800 C 159.096 123.759, 161.645 122.838, 164.200 119.633 C 165.782 117.649, 165.991 117.619, 167.200 119.205 C 168.429 120.817, 172.978 123, 175.108 123 C 176.828 123, 186 113.790, 186 112.063 C 186 111.148, 186.452 109.948, 187.004 109.396 C 187.622 108.778, 187.754 105.387, 187.347 100.580 C 186.725 93.215, 186.467 92.549, 182.843 88.962 C 180.730 86.869, 179 84.630, 179 83.985 C 179 82.353, 160.432 83.770, 156.671 85.689 C 151.876 88.137, 149.186 98.043, 152.435 101.292 C 153.682 102.539, 153.569 103.172, 151.576 106.114 C 150.315 107.976, 148.955 110.538, 148.556 111.807 C 147.760 114.333, 145.141 114.445, 144.037 112 C 140.256 103.629, 133.843 92.484, 130.283 88.096 C 126.808 83.813, 123 77.224, 123 75.495 C 123 75.351, 123.827 75.017, 124.839 74.752 C 126.915 74.210, 131.488 66.607, 132.494 62.026 C 132.992 59.760, 132.762 58.846, 131.580 58.392 C 129.410 57.560, 129.599 56.262, 132 55.500 C 133.572 55.001, 134 53.987, 134 50.761 C 134 48.504, 134.630 45.947, 135.400 45.079 C 136.170 44.210, 137.185 41.025, 137.656 38 C 138.353 33.519, 138.900 32.444, 140.602 32.201 C 142.341 31.952, 142.708 32.448, 142.785 35.152 C 142.953 41.044, 144.676 42.870, 150.384 43.203 C 156.466 43.557, 157.561 45.633, 153.019 48.200 C 150.306 49.734, 150.112 50.164, 151.038 52.601 C 151.896 54.855, 151.707 55.683, 149.899 57.608 C 147.294 60.380, 147.756 64.385, 151.227 69.119 C 153.982 72.877, 156.652 74.085, 164.500 75.126 C 177.782 76.888, 178.325 77.084, 182.570 81.636 C 187.130 86.525, 188.605 86.885, 192.273 84 C 195.304 81.616, 195.622 81.572, 196.337 83.436 C 196.640 84.226, 196 86.001, 194.915 87.381 C 193.161 89.611, 192.984 91.114, 193.318 100.947 C 193.728 112.997, 194.992 116, 199.655 116 L 202 116 202 98.607 C 202 84.069, 201.754 81.119, 200.500 80.638 C 199.564 80.279, 199 78.754, 199 76.582 C 199 73.725, 198.329 72.600, 195.250 70.301 C 193.188 68.761, 190.912 66.713, 190.193 65.751 C 188.376 63.316, 186.515 63.565, 184.592 66.500 C 183.691 67.875, 182.344 69, 181.599 69 C 180.854 69, 179.685 69.675, 179 70.500 C 177.415 72.410, 172.613 72.443, 171.046 70.555 C 170.386 69.760, 167.518 67.645, 164.673 65.855 C 157.798 61.529, 153.973 58.361, 154.722 57.611 C 156.211 56.122, 159.858 57.242, 162.500 60 C 164.655 62.249, 166.278 63, 168.987 63 C 170.974 63, 173.133 63.532, 173.783 64.183 C 175.452 65.852, 176.554 64.372, 175.020 62.524 C 173.911 61.188, 174.541 60.981, 180.128 60.842 C 183.632 60.756, 187.063 60.706, 187.750 60.731 C 189.322 60.790, 189.305 60.459, 187.458 55.157 C 185.191 48.646, 182.486 43.772, 179.696 41.168 C 176.752 38.421, 170.219 37.277, 167.078 38.958 C 165.138 39.997, 164.235 39.657, 159.684 36.177 C 150.652 29.271, 147.880 27.940, 144 28.646 C 140.546 29.274, 140.524 29.256, 142.300 27.257 C 143.290 26.143, 146.215 24.674, 148.800 23.992 C 156.766 21.891, 161.700 20.156, 168.568 17.042 C 174.803 14.215, 176.609 12.981, 185.649 5.377 C 189.268 2.331, 189.451 2.290, 192.931 3.726 C 194.894 4.536, 197.210 5.829, 198.079 6.600 C 200.806 9.019, 202 8.227, 202 4 L 202 0 188.648 -0 C 176.114 -0, 175.088 0.149, 171.898 2.427 C 165.678 6.868, 153.877 13, 151.548 13 C 149.071 13, 148 10.095, 148 3.375 L 148 0 141.415 0 L 134.829 0 135.518 7.353 C 136.136 13.946, 136.016 14.784, 134.354 15.455 C 133.334 15.867, 125.628 16.389, 117.230 16.615 L 101.960 17.025 100.980 14.447 C 100.441 13.030, 100 9.199, 100 5.935 L 100 0 93.500 0 L 87 0 87 7.441 C 87 11.922, 86.548 15.162, 85.863 15.585 C 85.237 15.972, 77.832 16.406, 69.408 16.551 C 52.004 16.849, 52.016 16.854, 51.318 9.249 C 50.446 -0.252, 50.643 0, 44.083 0 C 38.314 0, 38.207 0.051, 38.302 2.750 C 38.549 9.735, 37.918 18, 37.138 18 C 35.939 18, 12.644 6.736, 6.200 3.040 C 3.285 1.368, 0.698 -0, 0.450 -0 C 0.203 -0, -0 1.982, -0 4.405 Z M 0.272 5 C 0.272 7.475, 0.467 8.488, 0.706 7.250 C 0.944 6.012, 0.944 3.988, 0.706 2.750 C 0.467 1.512, 0.272 2.525, 0.272 5 Z M 137.500 19.713 C 136.400 19.978, 135.050 20.659, 134.500 21.226 C 133.817 21.932, 134.348 22.059, 136.181 21.627 C 137.655 21.281, 140.017 21.436, 141.431 21.974 C 142.844 22.511, 144 22.769, 144 22.547 C 144 21.809, 140.869 18.998, 140.179 19.116 C 139.805 19.180, 138.600 19.448, 137.500 19.713 Z M 86 20.986 C 84.865 21.730, 85.351 21.976, 88 21.998 C 89.925 22.014, 92.625 22.277, 94 22.582 C 95.831 22.989, 96.099 22.882, 95 22.184 C 92.503 20.595, 87.593 19.942, 86 20.986 Z M 41.250 22.689 C 42.212 22.941, 43.788 22.941, 44.750 22.689 C 45.712 22.438, 44.925 22.232, 43 22.232 C 41.075 22.232, 40.288 22.438, 41.250 22.689 Z M 101 24.583 C 99.625 25.346, 97.113 25.977, 95.417 25.985 C 93.721 25.993, 92.051 26.282, 91.706 26.627 C 91.361 26.972, 93.022 29.143, 95.397 31.452 C 97.772 33.760, 102.084 39.665, 104.980 44.574 C 110.554 54.023, 115.643 61, 116.963 61 C 117.400 61, 118.335 59.537, 119.041 57.750 C 121.999 50.257, 132.278 30.399, 133.825 29.188 C 135.387 27.965, 135.382 27.788, 133.741 26.571 C 132.543 25.683, 127.921 25.212, 119.255 25.097 C 112.254 25.003, 106.093 24.493, 105.563 23.963 C 104.396 22.796, 104.164 22.828, 101 24.583 Z M 46.750 25.737 C 42.280 26.195, 42.075 27.539, 45.904 31.293 C 47.470 32.829, 50.720 37.686, 53.126 42.087 C 58.320 51.588, 64.083 60.214, 65.558 60.694 C 66.140 60.884, 67.665 58.442, 68.948 55.269 C 70.231 52.096, 72.857 46.575, 74.784 43 C 76.712 39.425, 78.965 35.150, 79.791 33.500 C 80.617 31.850, 81.974 29.710, 82.807 28.744 C 83.640 27.778, 84.136 26.828, 83.911 26.633 C 83.275 26.083, 50.972 25.304, 46.750 25.737 Z M 86.167 36.309 C 85.628 36.964, 84.891 39.750, 84.529 42.500 C 83.345 51.500, 82.888 52.901, 80.931 53.522 C 78.870 54.176, 78.096 59.201, 80.125 58.750 C 82.464 58.230, 81.949 60.851, 78.780 65.591 C 75.668 70.248, 73.555 71.502, 73.455 68.750 C 73.389 66.959, 70.799 67.731, 68.750 70.153 C 66.431 72.894, 66.534 74.355, 69 73.710 C 70.100 73.423, 71 73.550, 71 73.993 C 71 75.346, 77.946 85.286, 81.488 89 C 83.323 90.925, 86.481 95.537, 88.504 99.250 C 92.584 106.734, 95.378 108.110, 96.463 103.168 C 96.805 101.610, 99.478 96.088, 102.402 90.897 C 105.327 85.706, 108.026 80.492, 108.401 79.312 C 108.868 77.842, 107.992 75.009, 105.625 70.332 C 101.470 62.122, 92.856 43.748, 91.087 39.322 C 89.664 35.761, 87.638 34.521, 86.167 36.309 Z M 112.355 72.483 C 112.710 73.407, 113 74.352, 113 74.582 C 113 74.812, 113.675 75, 114.500 75 C 116.645 75, 116.351 73.701, 113.855 72.142 C 111.956 70.955, 111.784 70.994, 112.355 72.483 Z M 0.413 99.500 C 0.414 109.400, 0.564 113.315, 0.746 108.199 C 0.928 103.084, 0.927 94.984, 0.744 90.199 C 0.561 85.415, 0.412 89.600, 0.413 99.500 Z M 61.260 85.238 C 58.861 88.251, 56.051 96.355, 56.620 98.621 C 57.713 102.976, 55.970 109.843, 52.442 115.086 C 50.551 117.897, 49.265 120.619, 49.584 121.136 C 50.232 122.185, 81.124 121.659, 82.888 120.570 C 83.845 119.977, 80.955 113.259, 77.048 107 C 76.533 106.175, 73.567 101.131, 70.457 95.790 C 64.103 84.880, 62.766 83.347, 61.260 85.238 Z M 111.126 91.752 C 110.073 93.816, 108.686 99.104, 108.043 103.502 C 107.358 108.191, 106.073 112.621, 104.937 114.210 C 100.596 120.282, 103.199 122.005, 116.684 121.986 C 133.482 121.963, 133.727 121.555, 125.646 107.086 C 122.702 101.814, 119.983 96.525, 119.605 95.332 C 118.752 92.643, 115.170 88, 113.948 88 C 113.449 88, 112.179 89.689, 111.126 91.752 Z M 19 94 C 19 94.550, 19.450 95, 20 95 C 20.550 95, 21 94.550, 21 94 C 21 93.450, 20.550 93, 20 93 C 19.450 93, 19 93.450, 19 94 Z M 159.459 99.067 C 159.096 99.653, 159.040 100.373, 159.333 100.667 C 160.050 101.383, 162 100.121, 162 98.941 C 162 97.663, 160.274 97.748, 159.459 99.067 Z M 18 102 C 19.939 103.253, 21 103.253, 21 102 C 21 101.450, 19.988 101.007, 18.750 101.015 C 16.931 101.028, 16.787 101.216, 18 102 Z M 168.109 102.369 C 167.454 103.158, 165.924 104.056, 164.709 104.365 C 161.660 105.139, 159.310 108.947, 161.158 110.119 C 163.412 111.548, 167.332 111.095, 170.750 109.011 C 174.626 106.648, 174.721 106.026, 171.650 103.141 C 169.643 101.255, 169.127 101.143, 168.109 102.369 Z M 129.079 106.583 C 129.127 107.748, 129.364 107.985, 129.683 107.188 C 129.972 106.466, 129.936 105.603, 129.604 105.271 C 129.272 104.939, 129.036 105.529, 129.079 106.583 Z M 42.374 117.467 C 41.443 119.895, 42.340 120.817, 44.750 119.911 C 45.987 119.445, 47 118.375, 47 117.532 C 47 115.565, 43.125 115.510, 42.374 117.467 Z M 87 119.755 C 87 120.305, 87.675 121.315, 88.500 122 C 89.337 122.694, 90 122.803, 90 122.245 C 90 121.695, 89.325 120.685, 88.500 120 C 87.663 119.306, 87 119.197, 87 119.755 Z M 136 121.300 C 136 123.035, 140.433 127.234, 141.324 126.342 C 142.780 124.887, 141.865 122.982, 139 121.500 C 136.579 120.248, 136 120.209, 136 121.300 Z M 39 123.500 C 37.980 124.729, 38.049 125, 39.378 125 C 40.270 125, 41 124.325, 41 123.500 C 41 122.675, 40.830 122, 40.622 122 C 40.415 122, 39.685 122.675, 39 123.500 Z M 90 125.873 C 90 126.472, 91.069 127.230, 92.375 127.558 C 93.948 127.953, 94.761 128.888, 94.782 130.327 C 94.800 131.522, 95.744 134.563, 96.881 137.084 C 98.426 140.513, 102.839 164.887, 103.015 170.973 C 103.095 173.729, 105.393 174.285, 118.142 174.631 C 125.489 174.830, 131.999 174.657, 132.608 174.247 C 134.265 173.130, 135.190 131.287, 133.572 130.666 C 132.907 130.411, 130.373 130.566, 127.940 131.011 C 125.508 131.456, 123.111 131.569, 122.615 131.262 C 122.118 130.955, 116.576 130.658, 110.299 130.602 C 99.803 130.508, 98.750 130.324, 97.193 128.311 C 95.321 125.890, 90 124.086, 90 125.873 Z M 41.575 131.879 C 41.187 132.506, 41.758 134.148, 42.843 135.528 C 45.401 138.780, 48.515 149.126, 50.518 161.031 C 51.394 166.239, 52.343 171.291, 52.625 172.257 C 53.085 173.827, 54.584 174.006, 66.696 173.935 C 74.152 173.890, 81.278 173.465, 82.530 172.989 C 84.746 172.146, 84.809 171.746, 84.872 158.034 C 84.907 150.285, 85.444 142.250, 86.065 140.179 C 86.685 138.107, 87.037 135.307, 86.847 133.956 C 86.542 131.796, 86.019 131.511, 82.500 131.594 C 80.300 131.646, 73.550 131.802, 67.500 131.940 C 61.450 132.078, 53.300 131.864, 49.390 131.465 C 44.435 130.959, 42.066 131.084, 41.575 131.879 Z M 142.460 137.750 C 144.062 141.906, 146.078 152.195, 147.018 161 C 148.209 172.173, 148.690 174, 150.441 174 C 152.010 174, 173.485 159.762, 176.934 156.435 L 179.368 154.087 174.934 152.077 C 172.495 150.971, 167.350 148.295, 163.500 146.130 C 145.249 135.865, 141.097 134.211, 142.460 137.750 Z M 0.272 147 C 0.272 149.475, 0.467 150.488, 0.706 149.250 C 0.944 148.012, 0.944 145.988, 0.706 144.750 C 0.467 143.512, 0.272 144.525, 0.272 147 Z M 0.310 160.500 C 0.315 163.800, 0.502 165.029, 0.725 163.232 C 0.947 161.435, 0.943 158.735, 0.715 157.232 C 0.486 155.729, 0.304 157.200, 0.310 160.500 Z M 193 157.724 C 193 158.161, 193.900 159.081, 195 159.768 C 196.108 160.460, 197 160.583, 197 160.044 C 197 159.508, 196.100 158.589, 195 158 C 193.900 157.411, 193 157.287, 193 157.724 Z M 0.300 200 C 0.300 203.025, 0.487 204.262, 0.716 202.750 C 0.945 201.238, 0.945 198.762, 0.716 197.250 C 0.487 195.738, 0.300 196.975, 0.300 200 Z" fill="#000000" fill-rule="evenodd" stroke="none" data-role="engrave"/>
      <path d="M 66.638 1.500 C 67.414 3.520, 73 3.520, 73 1.500 C 73 0.455, 71.948 0, 69.531 0 C 66.859 0, 66.195 0.344, 66.638 1.500 Z" fill="#000000" fill-rule="evenodd" stroke="none" data-role="engrave"/>
      <path d="M 114 1.941 C 114 3.509, 115.767 4.097, 118.454 3.422 C 122.158 2.493, 121.570 1, 117.500 1 C 115.575 1, 114 1.423, 114 1.941 Z" fill="#000000" fill-rule="evenodd" stroke="none" data-role="engrave"/>
      <path d="M 26.338 30.915 C 24.599 31.987, 22.799 33.484, 22.338 34.242 C 20.327 37.551, 16.625 39.019, 11.882 38.390 C 9.198 38.034, 5.691 38.277, 3.611 38.963 L 0 40.155 -0 50.969 C -0 61.670, 0.026 61.790, 2.500 62.411 C 3.875 62.756, 5 63.667, 5 64.436 C 5 65.204, 5.484 65.995, 6.075 66.192 C 7.952 66.817, 6.003 72, 3.892 72 C 2.851 72, 2 71.352, 2 70.559 C 2 69.766, 1.550 68.840, 1 68.500 C 0.417 68.139, 0 69.156, 0 70.941 C 0 73.946, 0.088 74, 5.014 74 C 7.771 74, 10.853 74.516, 11.863 75.146 C 14.396 76.728, 18.080 75.596, 21.720 72.117 C 23.408 70.504, 25.961 68.416, 27.394 67.477 C 30.228 65.621, 30.640 63.133, 28.927 58.220 C 28.141 55.965, 28.167 54.557, 29.025 52.954 C 30.513 50.173, 28.674 48.090, 23.861 47.105 C 19.591 46.232, 19.347 43.605, 23.500 43.226 C 25.150 43.075, 27.504 42.731, 28.732 42.461 C 33.548 41.403, 35.970 29.830, 31.500 29.233 C 30.400 29.086, 28.077 29.842, 26.338 30.915 Z M 14.658 64.449 C 14.286 65.418, 14.582 65.714, 15.551 65.342 C 17.133 64.735, 17.545 63, 16.107 63 C 15.616 63, 14.964 63.652, 14.658 64.449 Z" fill="#000000" fill-rule="evenodd" stroke="none" data-role="engrave"/>
      <path d="M 197.743 40.084 C 192.417 43.186, 190.003 57.144, 194.677 57.810 C 195.875 57.981, 197.393 58.768, 198.050 59.560 C 200.470 62.476, 201 60.759, 201 50 C 201 43.950, 200.662 39.014, 200.250 39.030 C 199.838 39.047, 198.709 39.521, 197.743 40.084 Z" fill="#000000" fill-rule="evenodd" stroke="none" data-role="engrave"/>
      <path d="M 68.750 199.429 C 66.554 201.049, 66.513 202.599, 68.643 203.417 C 70.796 204.243, 71.218 203.709, 70.825 200.660 C 70.540 198.446, 70.286 198.296, 68.750 199.429 Z" fill="#000000" fill-rule="evenodd" stroke="none" data-role="engrave"/>
      <path d="M 114.065 202.879 C 112.686 205.454, 114.064 206.306, 117.497 205.001 C 120.530 203.848, 120.382 201.653, 117.239 201.189 C 115.936 200.997, 114.728 201.640, 114.065 202.879 Z" fill="#000000" fill-rule="evenodd" stroke="none" data-role="engrave"/>
    </g>
    <g transform="translate(0 207)">
      <path d="M -0 4.405 C -0 8.600, 0.226 8.943, 4.750 11.611 C 10.382 14.932, 27.618 23.451, 30.574 24.375 C 34.247 25.523, 37.697 30.326, 40.003 37.500 C 41.240 41.350, 43.051 45.400, 44.028 46.500 C 47.139 50.002, 51.637 59.267, 54.510 68.087 L 57.294 76.637 53.885 82.068 C 52.010 85.056, 48.480 92, 46.042 97.500 C 40.751 109.436, 39.220 112, 37.388 112 C 35.510 112, 28 105.107, 28 103.384 C 28 101.050, 29.992 101.848, 31.039 104.602 C 31.715 106.380, 32.524 107.013, 33.596 106.602 C 34.458 106.271, 35.352 106, 35.582 106 C 37.174 106, 35.433 101.366, 32.671 98.253 C 30.839 96.189, 27.858 92.312, 26.046 89.639 C 21.518 82.958, 16.880 81.006, 7.250 81.726 L 0 82.269 0.008 99.384 L 0.015 116.500 4.077 118.820 C 7.857 120.979, 8.304 121.031, 10.534 119.570 C 11.852 118.706, 13.901 118, 15.087 118 C 16.819 118, 17.017 117.725, 16.087 116.605 C 15.451 115.838, 15.058 114.601, 15.215 113.855 C 15.405 112.953, 14.498 112.500, 12.500 112.500 C 8.487 112.500, 5.349 110.575, 3.485 106.970 C 2.110 104.312, 2.109 104, 3.474 104 C 4.313 104, 5 104.450, 5 105 C 5 105.550, 5.675 106, 6.500 106 C 7.325 106, 8 105.287, 8 104.417 C 8 103.546, 8.338 102.983, 8.750 103.167 C 18.047 107.296, 18 107.256, 18 111.039 C 18 113.240, 18.784 115.598, 19.970 116.966 C 21.054 118.215, 22.202 120.061, 22.521 121.068 C 22.841 122.074, 24.004 123.184, 25.106 123.534 C 26.208 123.884, 26.942 124.674, 26.736 125.291 C 26.531 125.907, 20.431 130.234, 13.181 134.906 C 0.108 143.331, 0 143.432, 0 147.169 C 0 151.287, 0.843 151.400, 6 147.974 C 7.375 147.060, 10.300 145.186, 12.500 143.808 C 23.997 136.609, 28.019 133.788, 28.816 132.365 C 29.299 131.501, 30.551 130.962, 31.597 131.167 C 33.219 131.485, 33.516 132.496, 33.609 138.020 C 33.669 141.584, 34.074 150.688, 34.509 158.250 C 35.137 169.174, 35.036 172, 34.018 172 C 32.646 172, 19.346 165.382, 9.500 159.800 C -0.251 154.273, -0 154.258, -0 160.372 L 0 165.682 5.250 168.540 C 8.138 170.112, 13.875 173.104, 18 175.189 C 25.742 179.103, 26.946 180.698, 23.497 182.470 C 22.395 183.037, 18.795 185.145, 15.497 187.155 C 12.199 189.166, 7.362 191.843, 4.750 193.105 C 0.065 195.367, 0 195.464, 0 200.183 L 0 204.968 3.750 203.263 C 5.813 202.326, 9.300 200.371, 11.500 198.919 C 13.700 197.468, 18.987 194.160, 23.250 191.569 C 30.929 186.901, 32.167 185.595, 29.750 184.708 C 28.762 184.346, 28.757 183.977, 29.726 182.949 C 31.572 180.990, 34.884 184.382, 34.777 188.122 C 34.732 189.738, 35.305 192.200, 36.051 193.595 C 37.179 195.704, 37.183 196.269, 36.075 196.954 C 35.310 197.427, 34.690 199.743, 34.621 202.390 L 34.500 207.002 42.203 207.001 L 49.906 207 49.325 201.750 C 48.690 196.012, 45.589 187.734, 43.390 185.909 C 42.626 185.274, 42 184.413, 42 183.995 C 42 183.577, 47.288 183.279, 53.750 183.333 C 60.213 183.388, 69.450 182.904, 74.277 182.258 C 85.314 180.781, 86.288 181.101, 85.274 185.866 C 84.346 190.221, 84.393 198.088, 85.376 203.250 L 86.091 207 93.154 207 C 99.971 207, 100.198 206.922, 99.680 204.750 C 99.385 203.512, 98.846 200.250, 98.482 197.500 C 98.118 194.750, 96.981 191.308, 95.955 189.850 C 94.928 188.393, 93.804 186.068, 93.457 184.684 C 92.736 181.811, 91.578 181.848, 110.900 184.133 C 120.130 185.225, 121.831 185.174, 126.034 183.682 C 128.638 182.757, 131.773 182, 133.001 182 C 134.928 182, 135.144 182.376, 134.578 184.750 C 134.217 186.263, 133.655 191.887, 133.328 197.250 L 132.733 207 139.454 207 L 146.176 207 145.504 202.750 C 144.545 196.685, 142.228 188.980, 140.873 187.347 C 140.236 186.580, 140.002 185.664, 140.353 185.313 C 141.078 184.589, 143.341 185.671, 150.500 190.169 C 153.250 191.896, 160.588 195.906, 166.806 199.078 C 173.024 202.251, 178.649 205.277, 179.306 205.802 C 179.963 206.327, 184.881 206.793, 190.236 206.839 C 198.818 206.913, 200.091 206.698, 200.986 205.027 C 202.133 202.884, 202.371 192.892, 201.235 194.610 C 200.831 195.221, 199.150 196.396, 197.500 197.220 C 191.657 200.140, 189.683 200.102, 183.945 196.956 C 169.648 189.120, 158.178 183.603, 155 183.036 C 151.528 182.416, 151.577 182.373, 161.104 177.798 C 166.387 175.261, 171.567 172.095, 172.615 170.762 C 173.664 169.429, 175.710 167.700, 177.162 166.919 C 178.615 166.139, 181.432 164.202, 183.423 162.615 C 186.682 160.018, 187.216 159.878, 188.772 161.218 C 191.966 163.970, 197.219 165.983, 199.628 165.379 C 201.761 164.843, 202 164.234, 202 159.333 C 202 156.203, 201.602 154.128, 201.064 154.460 C 200.483 154.819, 200.483 153.802, 201.064 151.776 C 201.579 149.981, 202 147.005, 202 145.161 L 202 141.809 196.515 144.905 C 193.498 146.607, 190.070 148, 188.896 148 C 187.722 148, 184.228 146.462, 181.131 144.583 C 178.034 142.703, 169.086 137.933, 161.247 133.982 C 143.210 124.891, 142.345 123.866, 152.665 123.800 C 159.096 123.759, 161.645 122.838, 164.200 119.633 C 165.782 117.649, 165.991 117.619, 167.200 119.205 C 168.429 120.817, 172.978 123, 175.108 123 C 176.828 123, 186 113.790, 186 112.063 C 186 111.148, 186.452 109.948, 187.004 109.396 C 187.622 108.778, 187.754 105.387, 187.347 100.580 C 186.725 93.215, 186.467 92.549, 182.843 88.962 C 180.730 86.869, 179 84.630, 179 83.985 C 179 82.353, 160.432 83.770, 156.671 85.689 C 151.876 88.137, 149.186 98.043, 152.435 101.292 C 153.682 102.539, 153.569 103.172, 151.576 106.114 C 150.315 107.976, 148.955 110.538, 148.556 111.807 C 147.760 114.333, 145.141 114.445, 144.037 112 C 140.256 103.629, 133.843 92.484, 130.283 88.096 C 126.808 83.813, 123 77.224, 123 75.495 C 123 75.351, 123.827 75.017, 124.839 74.752 C 126.915 74.210, 131.488 66.607, 132.494 62.026 C 132.992 59.760, 132.762 58.846, 131.580 58.392 C 129.410 57.560, 129.599 56.262, 132 55.500 C 133.572 55.001, 134 53.987, 134 50.761 C 134 48.504, 134.630 45.947, 135.400 45.079 C 136.170 44.210, 137.185 41.025, 137.656 38 C 138.353 33.519, 138.900 32.444, 140.602 32.201 C 142.341 31.952, 142.708 32.448, 142.785 35.152 C 142.953 41.044, 144.676 42.870, 150.384 43.203 C 156.466 43.557, 157.561 45.633, 153.019 48.200 C 150.306 49.734, 150.112 50.164, 151.038 52.601 C 151.896 54.855, 151.707 55.683, 149.899 57.608 C 147.294 60.380, 147.756 64.385, 151.227 69.119 C 153.982 72.877, 156.652 74.085, 164.500 75.126 C 177.782 76.888, 178.325 77.084, 182.570 81.636 C 187.130 86.525, 188.605 86.885, 192.273 84 C 195.304 81.616, 195.622 81.572, 196.337 83.436 C 196.640 84.226, 196 86.001, 194.915 87.381 C 193.161 89.611, 192.984 91.114, 193.318 100.947 C 193.728 112.997, 194.992 116, 199.655 116 L 202 116 202 98.607 C 202 84.069, 201.754 81.119, 200.500 80.638 C 199.564 80.279, 199 78.754, 199 76.582 C 199 73.725, 198.329 72.600, 195.250 70.301 C 193.188 68.761, 190.912 66.713, 190.193 65.751 C 188.376 63.316, 186.515 63.565, 184.592 66.500 C 183.691 67.875, 182.344 69, 181.599 69 C 180.854 69, 179.685 69.675, 179 70.500 C 177.415 72.410, 172.613 72.443, 171.046 70.555 C 170.386 69.760, 167.518 67.645, 164.673 65.855 C 157.798 61.529, 153.973 58.361, 154.722 57.611 C 156.211 56.122, 159.858 57.242, 162.500 60 C 164.655 62.249, 166.278 63, 168.987 63 C 170.974 63, 173.133 63.532, 173.783 64.183 C 175.452 65.852, 176.554 64.372, 175.020 62.524 C 173.911 61.188, 174.541 60.981, 180.128 60.842 C 183.632 60.756, 187.063 60.706, 187.750 60.731 C 189.322 60.790, 189.305 60.459, 187.458 55.157 C 185.191 48.646, 182.486 43.772, 179.696 41.168 C 176.752 38.421, 170.219 37.277, 167.078 38.958 C 165.138 39.997, 164.235 39.657, 159.684 36.177 C 150.652 29.271, 147.880 27.940, 144 28.646 C 140.546 29.274, 140.524 29.256, 142.300 27.257 C 143.290 26.143, 146.215 24.674, 148.800 23.992 C 156.766 21.891, 161.700 20.156, 168.568 17.042 C 174.803 14.215, 176.609 12.981, 185.649 5.377 C 189.268 2.331, 189.451 2.290, 192.931 3.726 C 194.894 4.536, 197.210 5.829, 198.079 6.600 C 200.806 9.019, 202 8.227, 202 4 L 202 0 188.648 -0 C 176.114 -0, 175.088 0.149, 171.898 2.427 C 165.678 6.868, 153.877 13, 151.548 13 C 149.071 13, 148 10.095, 148 3.375 L 148 0 141.415 0 L 134.829 0 135.518 7.353 C 136.136 13.946, 136.016 14.784, 134.354 15.455 C 133.334 15.867, 125.628 16.389, 117.230 16.615 L 101.960 17.025 100.980 14.447 C 100.441 13.030, 100 9.199, 100 5.935 L 100 0 93.500 0 L 87 0 87 7.441 C 87 11.922, 86.548 15.162, 85.863 15.585 C 85.237 15.972, 77.832 16.406, 69.408 16.551 C 52.004 16.849, 52.016 16.854, 51.318 9.249 C 50.446 -0.252, 50.643 0, 44.083 0 C 38.314 0, 38.207 0.051, 38.302 2.750 C 38.549 9.735, 37.918 18, 37.138 18 C 35.939 18, 12.644 6.736, 6.200 3.040 C 3.285 1.368, 0.698 -0, 0.450 -0 C 0.203 -0, -0 1.982, -0 4.405 Z M 0.272 5 C 0.272 7.475, 0.467 8.488, 0.706 7.250 C 0.944 6.012, 0.944 3.988, 0.706 2.750 C 0.467 1.512, 0.272 2.525, 0.272 5 Z M 137.500 19.713 C 136.400 19.978, 135.050 20.659, 134.500 21.226 C 133.817 21.932, 134.348 22.059, 136.181 21.627 C 137.655 21.281, 140.017 21.436, 141.431 21.974 C 142.844 22.511, 144 22.769, 144 22.547 C 144 21.809, 140.869 18.998, 140.179 19.116 C 139.805 19.180, 138.600 19.448, 137.500 19.713 Z M 86 20.986 C 84.865 21.730, 85.351 21.976, 88 21.998 C 89.925 22.014, 92.625 22.277, 94 22.582 C 95.831 22.989, 96.099 22.882, 95 22.184 C 92.503 20.595, 87.593 19.942, 86 20.986 Z M 41.250 22.689 C 42.212 22.941, 43.788 22.941, 44.750 22.689 C 45.712 22.438, 44.925 22.232, 43 22.232 C 41.075 22.232, 40.288 22.438, 41.250 22.689 Z M 101 24.583 C 99.625 25.346, 97.113 25.977, 95.417 25.985 C 93.721 25.993, 92.051 26.282, 91.706 26.627 C 91.361 26.972, 93.022 29.143, 95.397 31.452 C 97.772 33.760, 102.084 39.665, 104.980 44.574 C 110.554 54.023, 115.643 61, 116.963 61 C 117.400 61, 118.335 59.537, 119.041 57.750 C 121.999 50.257, 132.278 30.399, 133.825 29.188 C 135.387 27.965, 135.382 27.788, 133.741 26.571 C 132.543 25.683, 127.921 25.212, 119.255 25.097 C 112.254 25.003, 106.093 24.493, 105.563 23.963 C 104.396 22.796, 104.164 22.828, 101 24.583 Z M 46.750 25.737 C 42.280 26.195, 42.075 27.539, 45.904 31.293 C 47.470 32.829, 50.720 37.686, 53.126 42.087 C 58.320 51.588, 64.083 60.214, 65.558 60.694 C 66.140 60.884, 67.665 58.442, 68.948 55.269 C 70.231 52.096, 72.857 46.575, 74.784 43 C 76.712 39.425, 78.965 35.150, 79.791 33.500 C 80.617 31.850, 81.974 29.710, 82.807 28.744 C 83.640 27.778, 84.136 26.828, 83.911 26.633 C 83.275 26.083, 50.972 25.304, 46.750 25.737 Z M 86.167 36.309 C 85.628 36.964, 84.891 39.750, 84.529 42.500 C 83.345 51.500, 82.888 52.901, 80.931 53.522 C 78.870 54.176, 78.096 59.201, 80.125 58.750 C 82.464 58.230, 81.949 60.851, 78.780 65.591 C 75.668 70.248, 73.555 71.502, 73.455 68.750 C 73.389 66.959, 70.799 67.731, 68.750 70.153 C 66.431 72.894, 66.534 74.355, 69 73.710 C 70.100 73.423, 71 73.550, 71 73.993 C 71 75.346, 77.946 85.286, 81.488 89 C 83.323 90.925, 86.481 95.537, 88.504 99.250 C 92.584 106.734, 95.378 108.110, 96.463 103.168 C 96.805 101.610, 99.478 96.088, 102.402 90.897 C 105.327 85.706, 108.026 80.492, 108.401 79.312 C 108.868 77.842, 107.992 75.009, 105.625 70.332 C 101.470 62.122, 92.856 43.748, 91.087 39.322 C 89.664 35.761, 87.638 34.521, 86.167 36.309 Z M 112.355 72.483 C 112.710 73.407, 113 74.352, 113 74.582 C 113 74.812, 113.675 75, 114.500 75 C 116.645 75, 116.351 73.701, 113.855 72.142 C 111.956 70.955, 111.784 70.994, 112.355 72.483 Z M 0.413 99.500 C 0.414 109.400, 0.564 113.315, 0.746 108.199 C 0.928 103.084, 0.927 94.984, 0.744 90.199 C 0.561 85.415, 0.412 89.600, 0.413 99.500 Z M 61.260 85.238 C 58.861 88.251, 56.051 96.355, 56.620 98.621 C 57.713 102.976, 55.970 109.843, 52.442 115.086 C 50.551 117.897, 49.265 120.619, 49.584 121.136 C 50.232 122.185, 81.124 121.659, 82.888 120.570 C 83.845 119.977, 80.955 113.259, 77.048 107 C 76.533 106.175, 73.567 101.131, 70.457 95.790 C 64.103 84.880, 62.766 83.347, 61.260 85.238 Z M 111.126 91.752 C 110.073 93.816, 108.686 99.104, 108.043 103.502 C 107.358 108.191, 106.073 112.621, 104.937 114.210 C 100.596 120.282, 103.199 122.005, 116.684 121.986 C 133.482 121.963, 133.727 121.555, 125.646 107.086 C 122.702 101.814, 119.983 96.525, 119.605 95.332 C 118.752 92.643, 115.170 88, 113.948 88 C 113.449 88, 112.179 89.689, 111.126 91.752 Z M 19 94 C 19 94.550, 19.450 95, 20 95 C 20.550 95, 21 94.550, 21 94 C 21 93.450, 20.550 93, 20 93 C 19.450 93, 19 93.450, 19 94 Z M 159.459 99.067 C 159.096 99.653, 159.040 100.373, 159.333 100.667 C 160.050 101.383, 162 100.121, 162 98.941 C 162 97.663, 160.274 97.748, 159.459 99.067 Z M 18 102 C 19.939 103.253, 21 103.253, 21 102 C 21 101.450, 19.988 101.007, 18.750 101.015 C 16.931 101.028, 16.787 101.216, 18 102 Z M 168.109 102.369 C 167.454 103.158, 165.924 104.056, 164.709 104.365 C 161.660 105.139, 159.310 108.947, 161.158 110.119 C 163.412 111.548, 167.332 111.095, 170.750 109.011 C 174.626 106.648, 174.721 106.026, 171.650 103.141 C 169.643 101.255, 169.127 101.143, 168.109 102.369 Z M 129.079 106.583 C 129.127 107.748, 129.364 107.985, 129.683 107.188 C 129.972 106.466, 129.936 105.603, 129.604 105.271 C 129.272 104.939, 129.036 105.529, 129.079 106.583 Z M 42.374 117.467 C 41.443 119.895, 42.340 120.817, 44.750 119.911 C 45.987 119.445, 47 118.375, 47 117.532 C 47 115.565, 43.125 115.510, 42.374 117.467 Z M 87 119.755 C 87 120.305, 87.675 121.315, 88.500 122 C 89.337 122.694, 90 122.803, 90 122.245 C 90 121.695, 89.325 120.685, 88.500 120 C 87.663 119.306, 87 119.197, 87 119.755 Z M 136 121.300 C 136 123.035, 140.433 127.234, 141.324 126.342 C 142.780 124.887, 141.865 122.982, 139 121.500 C 136.579 120.248, 136 120.209, 136 121.300 Z M 39 123.500 C 37.980 124.729, 38.049 125, 39.378 125 C 40.270 125, 41 124.325, 41 123.500 C 41 122.675, 40.830 122, 40.622 122 C 40.415 122, 39.685 122.675, 39 123.500 Z M 90 125.873 C 90 126.472, 91.069 127.230, 92.375 127.558 C 93.948 127.953, 94.761 128.888, 94.782 130.327 C 94.800 131.522, 95.744 134.563, 96.881 137.084 C 98.426 140.513, 102.839 164.887, 103.015 170.973 C 103.095 173.729, 105.393 174.285, 118.142 174.631 C 125.489 174.830, 131.999 174.657, 132.608 174.247 C 134.265 173.130, 135.190 131.287, 133.572 130.666 C 132.907 130.411, 130.373 130.566, 127.940 131.011 C 125.508 131.456, 123.111 131.569, 122.615 131.262 C 122.118 130.955, 116.576 130.658, 110.299 130.602 C 99.803 130.508, 98.750 130.324, 97.193 128.311 C 95.321 125.890, 90 124.086, 90 125.873 Z M 41.575 131.879 C 41.187 132.506, 41.758 134.148, 42.843 135.528 C 45.401 138.780, 48.515 149.126, 50.518 161.031 C 51.394 166.239, 52.343 171.291, 52.625 172.257 C 53.085 173.827, 54.584 174.006, 66.696 173.935 C 74.152 173.890, 81.278 173.465, 82.530 172.989 C 84.746 172.146, 84.809 171.746, 84.872 158.034 C 84.907 150.285, 85.444 142.250, 86.065 140.179 C 86.685 138.107, 87.037 135.307, 86.847 133.956 C 86.542 131.796, 86.019 131.511, 82.500 131.594 C 80.300 131.646, 73.550 131.802, 67.500 131.940 C 61.450 132.078, 53.300 131.864, 49.390 131.465 C 44.435 130.959, 42.066 131.084, 41.575 131.879 Z M 142.460 137.750 C 144.062 141.906, 146.078 152.195, 147.018 161 C 148.209 172.173, 148.690 174, 150.441 174 C 152.010 174, 173.485 159.762, 176.934 156.435 L 179.368 154.087 174.934 152.077 C 172.495 150.971, 167.350 148.295, 163.500 146.130 C 145.249 135.865, 141.097 134.211, 142.460 137.750 Z M 0.272 147 C 0.272 149.475, 0.467 150.488, 0.706 149.250 C 0.944 148.012, 0.944 145.988, 0.706 144.750 C 0.467 143.512, 0.272 144.525, 0.272 147 Z M 0.310 160.500 C 0.315 163.800, 0.502 165.029, 0.725 163.232 C 0.947 161.435, 0.943 158.735, 0.715 157.232 C 0.486 155.729, 0.304 157.200, 0.310 160.500 Z M 193 157.724 C 193 158.161, 193.900 159.081, 195 159.768 C 196.108 160.460, 197 160.583, 197 160.044 C 197 159.508, 196.100 158.589, 195 158 C 193.900 157.411, 193 157.287, 193 157.724 Z M 0.300 200 C 0.300 203.025, 0.487 204.262, 0.716 202.750 C 0.945 201.238, 0.945 198.762, 0.716 197.250 C 0.487 195.738, 0.300 196.975, 0.300 200 Z" fill="#000000" fill-rule="evenodd" stroke="none" data-role="engrave"/>
      <path d="M 66.638 1.500 C 67.414 3.520, 73 3.520, 73 1.500 C 73 0.455, 71.948 0, 69.531 0 C 66.859 0, 66.195 0.344, 66.638 1.500 Z" fill="#000000" fill-rule="evenodd" stroke="none" data-role="engrave"/>
      <path d="M 114 1.941 C 114 3.509, 115.767 4.097, 118.454 3.422 C 122.158 2.493, 121.570 1, 117.500 1 C 115.575 1, 114 1.423, 114 1.941 Z" fill="#000000" fill-rule="evenodd" stroke="none" data-role="engrave"/>
      <path d="M 26.338 30.915 C 24.599 31.987, 22.799 33.484, 22.338 34.242 C 20.327 37.551, 16.625 39.019, 11.882 38.390 C 9.198 38.034, 5.691 38.277, 3.611 38.963 L 0 40.155 -0 50.969 C -0 61.670, 0.026 61.790, 2.500 62.411 C 3.875 62.756, 5 63.667, 5 64.436 C 5 65.204, 5.484 65.995, 6.075 66.192 C 7.952 66.817, 6.003 72, 3.892 72 C 2.851 72, 2 71.352, 2 70.559 C 2 69.766, 1.550 68.840, 1 68.500 C 0.417 68.139, 0 69.156, 0 70.941 C 0 73.946, 0.088 74, 5.014 74 C 7.771 74, 10.853 74.516, 11.863 75.146 C 14.396 76.728, 18.080 75.596, 21.720 72.117 C 23.408 70.504, 25.961 68.416, 27.394 67.477 C 30.228 65.621, 30.640 63.133, 28.927 58.220 C 28.141 55.965, 28.167 54.557, 29.025 52.954 C 30.513 50.173, 28.674 48.090, 23.861 47.105 C 19.591 46.232, 19.347 43.605, 23.500 43.226 C 25.150 43.075, 27.504 42.731, 28.732 42.461 C 33.548 41.403, 35.970 29.830, 31.500 29.233 C 30.400 29.086, 28.077 29.842, 26.338 30.915 Z M 14.658 64.449 C 14.286 65.418, 14.582 65.714, 15.551 65.342 C 17.133 64.735, 17.545 63, 16.107 63 C 15.616 63, 14.964 63.652, 14.658 64.449 Z" fill="#000000" fill-rule="evenodd" stroke="none" data-role="engrave"/>
      <path d="M 197.743 40.084 C 192.417 43.186, 190.003 57.144, 194.677 57.810 C 195.875 57.981, 197.393 58.768, 198.050 59.560 C 200.470 62.476, 201 60.759, 201 50 C 201 43.950, 200.662 39.014, 200.250 39.030 C 199.838 39.047, 198.709 39.521, 197.743 40.084 Z" fill="#000000" fill-rule="evenodd" stroke="none" data-role="engrave"/>
      <path d="M 68.750 199.429 C 66.554 201.049, 66.513 202.599, 68.643 203.417 C 70.796 204.243, 71.218 203.709, 70.825 200.660 C 70.540 198.446, 70.286 198.296, 68.750 199.429 Z" fill="#000000" fill-rule="evenodd" stroke="none" data-role="engrave"/>
      <path d="M 114.065 202.879 C 112.686 205.454, 114.064 206.306, 117.497 205.001 C 120.530 203.848, 120.382 201.653, 117.239 201.189 C 115.936 200.997, 114.728 201.640, 114.065 202.879 Z" fill="#000000" fill-rule="evenodd" stroke="none" data-role="engrave"/>
    </g>
    <g transform="translate(201 207)">
      <path d="M -0 4.405 C -0 8.600, 0.226 8.943, 4.750 11.611 C 10.382 14.932, 27.618 23.451, 30.574 24.375 C 34.247 25.523, 37.697 30.326, 40.003 37.500 C 41.240 41.350, 43.051 45.400, 44.028 46.500 C 47.139 50.002, 51.637 59.267, 54.510 68.087 L 57.294 76.637 53.885 82.068 C 52.010 85.056, 48.480 92, 46.042 97.500 C 40.751 109.436, 39.220 112, 37.388 112 C 35.510 112, 28 105.107, 28 103.384 C 28 101.050, 29.992 101.848, 31.039 104.602 C 31.715 106.380, 32.524 107.013, 33.596 106.602 C 34.458 106.271, 35.352 106, 35.582 106 C 37.174 106, 35.433 101.366, 32.671 98.253 C 30.839 96.189, 27.858 92.312, 26.046 89.639 C 21.518 82.958, 16.880 81.006, 7.250 81.726 L 0 82.269 0.008 99.384 L 0.015 116.500 4.077 118.820 C 7.857 120.979, 8.304 121.031, 10.534 119.570 C 11.852 118.706, 13.901 118, 15.087 118 C 16.819 118, 17.017 117.725, 16.087 116.605 C 15.451 115.838, 15.058 114.601, 15.215 113.855 C 15.405 112.953, 14.498 112.500, 12.500 112.500 C 8.487 112.500, 5.349 110.575, 3.485 106.970 C 2.110 104.312, 2.109 104, 3.474 104 C 4.313 104, 5 104.450, 5 105 C 5 105.550, 5.675 106, 6.500 106 C 7.325 106, 8 105.287, 8 104.417 C 8 103.546, 8.338 102.983, 8.750 103.167 C 18.047 107.296, 18 107.256, 18 111.039 C 18 113.240, 18.784 115.598, 19.970 116.966 C 21.054 118.215, 22.202 120.061, 22.521 121.068 C 22.841 122.074, 24.004 123.184, 25.106 123.534 C 26.208 123.884, 26.942 124.674, 26.736 125.291 C 26.531 125.907, 20.431 130.234, 13.181 134.906 C 0.108 143.331, 0 143.432, 0 147.169 C 0 151.287, 0.843 151.400, 6 147.974 C 7.375 147.060, 10.300 145.186, 12.500 143.808 C 23.997 136.609, 28.019 133.788, 28.816 132.365 C 29.299 131.501, 30.551 130.962, 31.597 131.167 C 33.219 131.485, 33.516 132.496, 33.609 138.020 C 33.669 141.584, 34.074 150.688, 34.509 158.250 C 35.137 169.174, 35.036 172, 34.018 172 C 32.646 172, 19.346 165.382, 9.500 159.800 C -0.251 154.273, -0 154.258, -0 160.372 L 0 165.682 5.250 168.540 C 8.138 170.112, 13.875 173.104, 18 175.189 C 25.742 179.103, 26.946 180.698, 23.497 182.470 C 22.395 183.037, 18.795 185.145, 15.497 187.155 C 12.199 189.166, 7.362 191.843, 4.750 193.105 C 0.065 195.367, 0 195.464, 0 200.183 L 0 204.968 3.750 203.263 C 5.813 202.326, 9.300 200.371, 11.500 198.919 C 13.700 197.468, 18.987 194.160, 23.250 191.569 C 30.929 186.901, 32.167 185.595, 29.750 184.708 C 28.762 184.346, 28.757 183.977, 29.726 182.949 C 31.572 180.990, 34.884 184.382, 34.777 188.122 C 34.732 189.738, 35.305 192.200, 36.051 193.595 C 37.179 195.704, 37.183 196.269, 36.075 196.954 C 35.310 197.427, 34.690 199.743, 34.621 202.390 L 34.500 207.002 42.203 207.001 L 49.906 207 49.325 201.750 C 48.690 196.012, 45.589 187.734, 43.390 185.909 C 42.626 185.274, 42 184.413, 42 183.995 C 42 183.577, 47.288 183.279, 53.750 183.333 C 60.213 183.388, 69.450 182.904, 74.277 182.258 C 85.314 180.781, 86.288 181.101, 85.274 185.866 C 84.346 190.221, 84.393 198.088, 85.376 203.250 L 86.091 207 93.154 207 C 99.971 207, 100.198 206.922, 99.680 204.750 C 99.385 203.512, 98.846 200.250, 98.482 197.500 C 98.118 194.750, 96.981 191.308, 95.955 189.850 C 94.928 188.393, 93.804 186.068, 93.457 184.684 C 92.736 181.811, 91.578 181.848, 110.900 184.133 C 120.130 185.225, 121.831 185.174, 126.034 183.682 C 128.638 182.757, 131.773 182, 133.001 182 C 134.928 182, 135.144 182.376, 134.578 184.750 C 134.217 186.263, 133.655 191.887, 133.328 197.250 L 132.733 207 139.454 207 L 146.176 207 145.504 202.750 C 144.545 196.685, 142.228 188.980, 140.873 187.347 C 140.236 186.580, 140.002 185.664, 140.353 185.313 C 141.078 184.589, 143.341 185.671, 150.500 190.169 C 153.250 191.896, 160.588 195.906, 166.806 199.078 C 173.024 202.251, 178.649 205.277, 179.306 205.802 C 179.963 206.327, 184.881 206.793, 190.236 206.839 C 198.818 206.913, 200.091 206.698, 200.986 205.027 C 202.133 202.884, 202.371 192.892, 201.235 194.610 C 200.831 195.221, 199.150 196.396, 197.500 197.220 C 191.657 200.140, 189.683 200.102, 183.945 196.956 C 169.648 189.120, 158.178 183.603, 155 183.036 C 151.528 182.416, 151.577 182.373, 161.104 177.798 C 166.387 175.261, 171.567 172.095, 172.615 170.762 C 173.664 169.429, 175.710 167.700, 177.162 166.919 C 178.615 166.139, 181.432 164.202, 183.423 162.615 C 186.682 160.018, 187.216 159.878, 188.772 161.218 C 191.966 163.970, 197.219 165.983, 199.628 165.379 C 201.761 164.843, 202 164.234, 202 159.333 C 202 156.203, 201.602 154.128, 201.064 154.460 C 200.483 154.819, 200.483 153.802, 201.064 151.776 C 201.579 149.981, 202 147.005, 202 145.161 L 202 141.809 196.515 144.905 C 193.498 146.607, 190.070 148, 188.896 148 C 187.722 148, 184.228 146.462, 181.131 144.583 C 178.034 142.703, 169.086 137.933, 161.247 133.982 C 143.210 124.891, 142.345 123.866, 152.665 123.800 C 159.096 123.759, 161.645 122.838, 164.200 119.633 C 165.782 117.649, 165.991 117.619, 167.200 119.205 C 168.429 120.817, 172.978 123, 175.108 123 C 176.828 123, 186 113.790, 186 112.063 C 186 111.148, 186.452 109.948, 187.004 109.396 C 187.622 108.778, 187.754 105.387, 187.347 100.580 C 186.725 93.215, 186.467 92.549, 182.843 88.962 C 180.730 86.869, 179 84.630, 179 83.985 C 179 82.353, 160.432 83.770, 156.671 85.689 C 151.876 88.137, 149.186 98.043, 152.435 101.292 C 153.682 102.539, 153.569 103.172, 151.576 106.114 C 150.315 107.976, 148.955 110.538, 148.556 111.807 C 147.760 114.333, 145.141 114.445, 144.037 112 C 140.256 103.629, 133.843 92.484, 130.283 88.096 C 126.808 83.813, 123 77.224, 123 75.495 C 123 75.351, 123.827 75.017, 124.839 74.752 C 126.915 74.210, 131.488 66.607, 132.494 62.026 C 132.992 59.760, 132.762 58.846, 131.580 58.392 C 129.410 57.560, 129.599 56.262, 132 55.500 C 133.572 55.001, 134 53.987, 134 50.761 C 134 48.504, 134.630 45.947, 135.400 45.079 C 136.170 44.210, 137.185 41.025, 137.656 38 C 138.353 33.519, 138.900 32.444, 140.602 32.201 C 142.341 31.952, 142.708 32.448, 142.785 35.152 C 142.953 41.044, 144.676 42.870, 150.384 43.203 C 156.466 43.557, 157.561 45.633, 153.019 48.200 C 150.306 49.734, 150.112 50.164, 151.038 52.601 C 151.896 54.855, 151.707 55.683, 149.899 57.608 C 147.294 60.380, 147.756 64.385, 151.227 69.119 C 153.982 72.877, 156.652 74.085, 164.500 75.126 C 177.782 76.888, 178.325 77.084, 182.570 81.636 C 187.130 86.525, 188.605 86.885, 192.273 84 C 195.304 81.616, 195.622 81.572, 196.337 83.436 C 196.640 84.226, 196 86.001, 194.915 87.381 C 193.161 89.611, 192.984 91.114, 193.318 100.947 C 193.728 112.997, 194.992 116, 199.655 116 L 202 116 202 98.607 C 202 84.069, 201.754 81.119, 200.500 80.638 C 199.564 80.279, 199 78.754, 199 76.582 C 199 73.725, 198.329 72.600, 195.250 70.301 C 193.188 68.761, 190.912 66.713, 190.193 65.751 C 188.376 63.316, 186.515 63.565, 184.592 66.500 C 183.691 67.875, 182.344 69, 181.599 69 C 180.854 69, 179.685 69.675, 179 70.500 C 177.415 72.410, 172.613 72.443, 171.046 70.555 C 170.386 69.760, 167.518 67.645, 164.673 65.855 C 157.798 61.529, 153.973 58.361, 154.722 57.611 C 156.211 56.122, 159.858 57.242, 162.500 60 C 164.655 62.249, 166.278 63, 168.987 63 C 170.974 63, 173.133 63.532, 173.783 64.183 C 175.452 65.852, 176.554 64.372, 175.020 62.524 C 173.911 61.188, 174.541 60.981, 180.128 60.842 C 183.632 60.756, 187.063 60.706, 187.750 60.731 C 189.322 60.790, 189.305 60.459, 187.458 55.157 C 185.191 48.646, 182.486 43.772, 179.696 41.168 C 176.752 38.421, 170.219 37.277, 167.078 38.958 C 165.138 39.997, 164.235 39.657, 159.684 36.177 C 150.652 29.271, 147.880 27.940, 144 28.646 C 140.546 29.274, 140.524 29.256, 142.300 27.257 C 143.290 26.143, 146.215 24.674, 148.800 23.992 C 156.766 21.891, 161.700 20.156, 168.568 17.042 C 174.803 14.215, 176.609 12.981, 185.649 5.377 C 189.268 2.331, 189.451 2.290, 192.931 3.726 C 194.894 4.536, 197.210 5.829, 198.079 6.600 C 200.806 9.019, 202 8.227, 202 4 L 202 0 188.648 -0 C 176.114 -0, 175.088 0.149, 171.898 2.427 C 165.678 6.868, 153.877 13, 151.548 13 C 149.071 13, 148 10.095, 148 3.375 L 148 0 141.415 0 L 134.829 0 135.518 7.353 C 136.136 13.946, 136.016 14.784, 134.354 15.455 C 133.334 15.867, 125.628 16.389, 117.230 16.615 L 101.960 17.025 100.980 14.447 C 100.441 13.030, 100 9.199, 100 5.935 L 100 0 93.500 0 L 87 0 87 7.441 C 87 11.922, 86.548 15.162, 85.863 15.585 C 85.237 15.972, 77.832 16.406, 69.408 16.551 C 52.004 16.849, 52.016 16.854, 51.318 9.249 C 50.446 -0.252, 50.643 0, 44.083 0 C 38.314 0, 38.207 0.051, 38.302 2.750 C 38.549 9.735, 37.918 18, 37.138 18 C 35.939 18, 12.644 6.736, 6.200 3.040 C 3.285 1.368, 0.698 -0, 0.450 -0 C 0.203 -0, -0 1.982, -0 4.405 Z M 0.272 5 C 0.272 7.475, 0.467 8.488, 0.706 7.250 C 0.944 6.012, 0.944 3.988, 0.706 2.750 C 0.467 1.512, 0.272 2.525, 0.272 5 Z M 137.500 19.713 C 136.400 19.978, 135.050 20.659, 134.500 21.226 C 133.817 21.932, 134.348 22.059, 136.181 21.627 C 137.655 21.281, 140.017 21.436, 141.431 21.974 C 142.844 22.511, 144 22.769, 144 22.547 C 144 21.809, 140.869 18.998, 140.179 19.116 C 139.805 19.180, 138.600 19.448, 137.500 19.713 Z M 86 20.986 C 84.865 21.730, 85.351 21.976, 88 21.998 C 89.925 22.014, 92.625 22.277, 94 22.582 C 95.831 22.989, 96.099 22.882, 95 22.184 C 92.503 20.595, 87.593 19.942, 86 20.986 Z M 41.250 22.689 C 42.212 22.941, 43.788 22.941, 44.750 22.689 C 45.712 22.438, 44.925 22.232, 43 22.232 C 41.075 22.232, 40.288 22.438, 41.250 22.689 Z M 101 24.583 C 99.625 25.346, 97.113 25.977, 95.417 25.985 C 93.721 25.993, 92.051 26.282, 91.706 26.627 C 91.361 26.972, 93.022 29.143, 95.397 31.452 C 97.772 33.760, 102.084 39.665, 104.980 44.574 C 110.554 54.023, 115.643 61, 116.963 61 C 117.400 61, 118.335 59.537, 119.041 57.750 C 121.999 50.257, 132.278 30.399, 133.825 29.188 C 135.387 27.965, 135.382 27.788, 133.741 26.571 C 132.543 25.683, 127.921 25.212, 119.255 25.097 C 112.254 25.003, 106.093 24.493, 105.563 23.963 C 104.396 22.796, 104.164 22.828, 101 24.583 Z M 46.750 25.737 C 42.280 26.195, 42.075 27.539, 45.904 31.293 C 47.470 32.829, 50.720 37.686, 53.126 42.087 C 58.320 51.588, 64.083 60.214, 65.558 60.694 C 66.140 60.884, 67.665 58.442, 68.948 55.269 C 70.231 52.096, 72.857 46.575, 74.784 43 C 76.712 39.425, 78.965 35.150, 79.791 33.500 C 80.617 31.850, 81.974 29.710, 82.807 28.744 C 83.640 27.778, 84.136 26.828, 83.911 26.633 C 83.275 26.083, 50.972 25.304, 46.750 25.737 Z M 86.167 36.309 C 85.628 36.964, 84.891 39.750, 84.529 42.500 C 83.345 51.500, 82.888 52.901, 80.931 53.522 C 78.870 54.176, 78.096 59.201, 80.125 58.750 C 82.464 58.230, 81.949 60.851, 78.780 65.591 C 75.668 70.248, 73.555 71.502, 73.455 68.750 C 73.389 66.959, 70.799 67.731, 68.750 70.153 C 66.431 72.894, 66.534 74.355, 69 73.710 C 70.100 73.423, 71 73.550, 71 73.993 C 71 75.346, 77.946 85.286, 81.488 89 C 83.323 90.925, 86.481 95.537, 88.504 99.250 C 92.584 106.734, 95.378 108.110, 96.463 103.168 C 96.805 101.610, 99.478 96.088, 102.402 90.897 C 105.327 85.706, 108.026 80.492, 108.401 79.312 C 108.868 77.842, 107.992 75.009, 105.625 70.332 C 101.470 62.122, 92.856 43.748, 91.087 39.322 C 89.664 35.761, 87.638 34.521, 86.167 36.309 Z M 112.355 72.483 C 112.710 73.407, 113 74.352, 113 74.582 C 113 74.812, 113.675 75, 114.500 75 C 116.645 75, 116.351 73.701, 113.855 72.142 C 111.956 70.955, 111.784 70.994, 112.355 72.483 Z M 0.413 99.500 C 0.414 109.400, 0.564 113.315, 0.746 108.199 C 0.928 103.084, 0.927 94.984, 0.744 90.199 C 0.561 85.415, 0.412 89.600, 0.413 99.500 Z M 61.260 85.238 C 58.861 88.251, 56.051 96.355, 56.620 98.621 C 57.713 102.976, 55.970 109.843, 52.442 115.086 C 50.551 117.897, 49.265 120.619, 49.584 121.136 C 50.232 122.185, 81.124 121.659, 82.888 120.570 C 83.845 119.977, 80.955 113.259, 77.048 107 C 76.533 106.175, 73.567 101.131, 70.457 95.790 C 64.103 84.880, 62.766 83.347, 61.260 85.238 Z M 111.126 91.752 C 110.073 93.816, 108.686 99.104, 108.043 103.502 C 107.358 108.191, 106.073 112.621, 104.937 114.210 C 100.596 120.282, 103.199 122.005, 116.684 121.986 C 133.482 121.963, 133.727 121.555, 125.646 107.086 C 122.702 101.814, 119.983 96.525, 119.605 95.332 C 118.752 92.643, 115.170 88, 113.948 88 C 113.449 88, 112.179 89.689, 111.126 91.752 Z M 19 94 C 19 94.550, 19.450 95, 20 95 C 20.550 95, 21 94.550, 21 94 C 21 93.450, 20.550 93, 20 93 C 19.450 93, 19 93.450, 19 94 Z M 159.459 99.067 C 159.096 99.653, 159.040 100.373, 159.333 100.667 C 160.050 101.383, 162 100.121, 162 98.941 C 162 97.663, 160.274 97.748, 159.459 99.067 Z M 18 102 C 19.939 103.253, 21 103.253, 21 102 C 21 101.450, 19.988 101.007, 18.750 101.015 C 16.931 101.028, 16.787 101.216, 18 102 Z M 168.109 102.369 C 167.454 103.158, 165.924 104.056, 164.709 104.365 C 161.660 105.139, 159.310 108.947, 161.158 110.119 C 163.412 111.548, 167.332 111.095, 170.750 109.011 C 174.626 106.648, 174.721 106.026, 171.650 103.141 C 169.643 101.255, 169.127 101.143, 168.109 102.369 Z M 129.079 106.583 C 129.127 107.748, 129.364 107.985, 129.683 107.188 C 129.972 106.466, 129.936 105.603, 129.604 105.271 C 129.272 104.939, 129.036 105.529, 129.079 106.583 Z M 42.374 117.467 C 41.443 119.895, 42.340 120.817, 44.750 119.911 C 45.987 119.445, 47 118.375, 47 117.532 C 47 115.565, 43.125 115.510, 42.374 117.467 Z M 87 119.755 C 87 120.305, 87.675 121.315, 88.500 122 C 89.337 122.694, 90 122.803, 90 122.245 C 90 121.695, 89.325 120.685, 88.500 120 C 87.663 119.306, 87 119.197, 87 119.755 Z M 136 121.300 C 136 123.035, 140.433 127.234, 141.324 126.342 C 142.780 124.887, 141.865 122.982, 139 121.500 C 136.579 120.248, 136 120.209, 136 121.300 Z M 39 123.500 C 37.980 124.729, 38.049 125, 39.378 125 C 40.270 125, 41 124.325, 41 123.500 C 41 122.675, 40.830 122, 40.622 122 C 40.415 122, 39.685 122.675, 39 123.500 Z M 90 125.873 C 90 126.472, 91.069 127.230, 92.375 127.558 C 93.948 127.953, 94.761 128.888, 94.782 130.327 C 94.800 131.522, 95.744 134.563, 96.881 137.084 C 98.426 140.513, 102.839 164.887, 103.015 170.973 C 103.095 173.729, 105.393 174.285, 118.142 174.631 C 125.489 174.830, 131.999 174.657, 132.608 174.247 C 134.265 173.130, 135.190 131.287, 133.572 130.666 C 132.907 130.411, 130.373 130.566, 127.940 131.011 C 125.508 131.456, 123.111 131.569, 122.615 131.262 C 122.118 130.955, 116.576 130.658, 110.299 130.602 C 99.803 130.508, 98.750 130.324, 97.193 128.311 C 95.321 125.890, 90 124.086, 90 125.873 Z M 41.575 131.879 C 41.187 132.506, 41.758 134.148, 42.843 135.528 C 45.401 138.780, 48.515 149.126, 50.518 161.031 C 51.394 166.239, 52.343 171.291, 52.625 172.257 C 53.085 173.827, 54.584 174.006, 66.696 173.935 C 74.152 173.890, 81.278 173.465, 82.530 172.989 C 84.746 172.146, 84.809 171.746, 84.872 158.034 C 84.907 150.285, 85.444 142.250, 86.065 140.179 C 86.685 138.107, 87.037 135.307, 86.847 133.956 C 86.542 131.796, 86.019 131.511, 82.500 131.594 C 80.300 131.646, 73.550 131.802, 67.500 131.940 C 61.450 132.078, 53.300 131.864, 49.390 131.465 C 44.435 130.959, 42.066 131.084, 41.575 131.879 Z M 142.460 137.750 C 144.062 141.906, 146.078 152.195, 147.018 161 C 148.209 172.173, 148.690 174, 150.441 174 C 152.010 174, 173.485 159.762, 176.934 156.435 L 179.368 154.087 174.934 152.077 C 172.495 150.971, 167.350 148.295, 163.500 146.130 C 145.249 135.865, 141.097 134.211, 142.460 137.750 Z M 0.272 147 C 0.272 149.475, 0.467 150.488, 0.706 149.250 C 0.944 148.012, 0.944 145.988, 0.706 144.750 C 0.467 143.512, 0.272 144.525, 0.272 147 Z M 0.310 160.500 C 0.315 163.800, 0.502 165.029, 0.725 163.232 C 0.947 161.435, 0.943 158.735, 0.715 157.232 C 0.486 155.729, 0.304 157.200, 0.310 160.500 Z M 193 157.724 C 193 158.161, 193.900 159.081, 195 159.768 C 196.108 160.460, 197 160.583, 197 160.044 C 197 159.508, 196.100 158.589, 195 158 C 193.900 157.411, 193 157.287, 193 157.724 Z M 0.300 200 C 0.300 203.025, 0.487 204.262, 0.716 202.750 C 0.945 201.238, 0.945 198.762, 0.716 197.250 C 0.487 195.738, 0.300 196.975, 0.300 200 Z" fill="#000000" fill-rule="evenodd" stroke="none" data-role="engrave"/>
      <path d="M 66.638 1.500 C 67.414 3.520, 73 3.520, 73 1.500 C 73 0.455, 71.948 0, 69.531 0 C 66.859 0, 66.195 0.344, 66.638 1.500 Z" fill="#000000" fill-rule="evenodd" stroke="none" data-role="engrave"/>
      <path d="M 114 1.941 C 114 3.509, 115.767 4.097, 118.454 3.422 C 122.158 2.493, 121.570 1, 117.500 1 C 115.575 1, 114 1.423, 114 1.941 Z" fill="#000000" fill-rule="evenodd" stroke="none" data-role="engrave"/>
      <path d="M 26.338 30.915 C 24.599 31.987, 22.799 33.484, 22.338 34.242 C 20.327 37.551, 16.625 39.019, 11.882 38.390 C 9.198 38.034, 5.691 38.277, 3.611 38.963 L 0 40.155 -0 50.969 C -0 61.670, 0.026 61.790, 2.500 62.411 C 3.875 62.756, 5 63.667, 5 64.436 C 5 65.204, 5.484 65.995, 6.075 66.192 C 7.952 66.817, 6.003 72, 3.892 72 C 2.851 72, 2 71.352, 2 70.559 C 2 69.766, 1.550 68.840, 1 68.500 C 0.417 68.139, 0 69.156, 0 70.941 C 0 73.946, 0.088 74, 5.014 74 C 7.771 74, 10.853 74.516, 11.863 75.146 C 14.396 76.728, 18.080 75.596, 21.720 72.117 C 23.408 70.504, 25.961 68.416, 27.394 67.477 C 30.228 65.621, 30.640 63.133, 28.927 58.220 C 28.141 55.965, 28.167 54.557, 29.025 52.954 C 30.513 50.173, 28.674 48.090, 23.861 47.105 C 19.591 46.232, 19.347 43.605, 23.500 43.226 C 25.150 43.075, 27.504 42.731, 28.732 42.461 C 33.548 41.403, 35.970 29.830, 31.500 29.233 C 30.400 29.086, 28.077 29.842, 26.338 30.915 Z M 14.658 64.449 C 14.286 65.418, 14.582 65.714, 15.551 65.342 C 17.133 64.735, 17.545 63, 16.107 63 C 15.616 63, 14.964 63.652, 14.658 64.449 Z" fill="#000000" fill-rule="evenodd" stroke="none" data-role="engrave"/>
      <path d="M 197.743 40.084 C 192.417 43.186, 190.003 57.144, 194.677 57.810 C 195.875 57.981, 197.393 58.768, 198.050 59.560 C 200.470 62.476, 201 60.759, 201 50 C 201 43.950, 200.662 39.014, 200.250 39.030 C 199.838 39.047, 198.709 39.521, 197.743 40.084 Z" fill="#000000" fill-rule="evenodd" stroke="none" data-role="engrave"/>
      <path d="M 68.750 199.429 C 66.554 201.049, 66.513 202.599, 68.643 203.417 C 70.796 204.243, 71.218 203.709, 70.825 200.660 C 70.540 198.446, 70.286 198.296, 68.750 199.429 Z" fill="#000000" fill-rule="evenodd" stroke="none" data-role="engrave"/>
      <path d="M 114.065 202.879 C 112.686 205.454, 114.064 206.306, 117.497 205.001 C 120.530 203.848, 120.382 201.653, 117.239 201.189 C 115.936 200.997, 114.728 201.640, 114.065 202.879 Z" fill="#000000" fill-rule="evenodd" stroke="none" data-role="engrave"/>
    </g>
  </g>
  <path data-role="cut" d="M0.5 0.5 H377.5 V377.5 H0.5 Z" fill="none" stroke="#FF0000" stroke-width="1"/>
</svg>