<?xml version="1.0" encoding="UTF-8" standalone="no"?>
<!DOCTYPE svg PUBLIC "-//W3C//DTD SVG 1.1//EN" "http://www.w3.org/Graphics/SVG/1.1/DTD/svg11.dtd">
<svg width="100%" height="100%" viewBox="0 0 110 110" version="1.1" xmlns="http://www.w3.org/2000/svg" xmlns:xlink="http://www.w3.org/1999/xlink" xml:space="preserve" xmlns:serif="http://www.serif.com/" style="fill-rule:evenodd;clip-rule:evenodd;stroke-linejoin:round;stroke-miterlimit:2;">
    <g transform="matrix(1,0,0,1,-311,-45)">
        <g transform="matrix(4.595055,0,0,8.21236,-0.937768,-41.954067)">
            <path d="M79.25,18.949C79.25,18.322 78.342,17.814 77.222,17.814L70.261,17.814C69.848,17.814 69.513,17.627 69.513,17.396L69.513,17.393C69.513,17.162 69.848,16.975 70.261,16.975L77.222,16.975C78.342,16.975 79.25,16.467 79.25,15.84L79.25,11.945C79.25,11.714 79.585,11.527 79.997,11.527L80.003,11.527C80.415,11.527 80.75,11.714 80.75,11.945L80.75,15.84C80.75,16.467 81.658,16.975 82.778,16.975L89.739,16.975C90.152,16.975 90.487,17.162 90.487,17.393L90.487,17.396C90.487,17.627 90.152,17.814 89.739,17.814L82.778,17.814C81.658,17.814 80.75,18.322 80.75,18.949L80.75,22.844C80.75,23.075 80.415,23.262 80.003,23.262L79.997,23.262C79.585,23.262 79.25,23.075 79.25,22.844L79.25,18.949Z"/>
        </g>
    </g>
</svg>
