<?xml version="1.0" encoding="UTF-8" standalone="no"?>
<!DOCTYPE svg PUBLIC "-//W3C//DTD SVG 1.1//EN" "http://www.w3.org/Graphics/SVG/1.1/DTD/svg11.dtd">
<svg width="100%" height="100%" viewBox="0 0 110 110" version="1.1" xmlns="http://www.w3.org/2000/svg" xmlns:xlink="http://www.w3.org/1999/xlink" xml:space="preserve" xmlns:serif="http://www.serif.com/" style="fill-rule:evenodd;clip-rule:evenodd;stroke-linejoin:round;stroke-miterlimit:2;">
    <g transform="matrix(1,0,0,1,-467,-357)">
        <g transform="matrix(4.010417,0,0,4.010413,71.328125,57.578447)">
            <path d="M106.5,94.5C103.189,94.5 100.5,91.811 100.5,88.5C100.5,85.189 103.189,82.5 106.5,82.5C106.5,79.189 109.189,76.5 112.5,76.5C115.811,76.5 118.5,79.189 118.5,82.5C121.797,82.517 124.469,85.199 124.469,88.5C124.469,91.801 121.797,94.483 118.5,94.5C118.5,97.811 115.811,100.5 112.5,100.5C109.189,100.5 106.5,97.811 106.5,94.5Z"/>
        </g>
    </g>
</svg>
