<?xml version="1.0" encoding="UTF-8" standalone="no"?>
<!DOCTYPE svg PUBLIC "-//W3C//DTD SVG 1.1//EN" "http://www.w3.org/Graphics/SVG/1.1/DTD/svg11.dtd">
<svg width="100%" height="100%" viewBox="0 0 110 110" version="1.1" xmlns="http://www.w3.org/2000/svg" xmlns:xlink="http://www.w3.org/1999/xlink" xml:space="preserve" xmlns:serif="http://www.serif.com/" style="fill-rule:evenodd;clip-rule:evenodd;stroke-linejoin:round;stroke-miterlimit:2;">
    <g transform="matrix(1,0,0,1,-623,-45)">
        <g transform="matrix(4.589194,0,0,8.201886,311.197782,-41.833324)">
            <path d="M77.905,17.88L69.513,17.396L69.513,17.393L77.905,16.909L72.583,13.246L72.587,13.244L79.132,16.222L79.997,11.527L80.003,11.527L80.868,16.222L87.413,13.244L87.417,13.246L82.095,16.909L90.487,17.393L90.487,17.396L82.095,17.88L87.417,21.542L87.413,21.544L80.868,18.567L80.003,23.262L79.997,23.262L79.132,18.567L72.587,21.544L72.583,21.542L77.905,17.88Z"/>
        </g>
    </g>
</svg>
