<?xml version="1.0" encoding="UTF-8" standalone="no"?>
<!DOCTYPE svg PUBLIC "-//W3C//DTD SVG 1.1//EN" "http://www.w3.org/Graphics/SVG/1.1/DTD/svg11.dtd">
<svg width="100%" height="100%" viewBox="0 0 110 110" version="1.1" xmlns="http://www.w3.org/2000/svg" xmlns:xlink="http://www.w3.org/1999/xlink" xml:space="preserve" xmlns:serif="http://www.serif.com/" style="fill-rule:evenodd;clip-rule:evenodd;stroke-linejoin:round;stroke-miterlimit:2;">
    <g transform="matrix(1,0,0,1,-935,-2383)">
        <g transform="matrix(3.000243,-3.000243,3.047533,3.047533,-1327.789144,1465.095871)">
            <path d="M216.054,540.861L216.054,532.054L225,532.054L225,534.539L218.578,534.539L218.578,540.861L216.054,540.861ZM219.488,544.242L219.488,535.435L228.434,535.435L228.434,537.92L222.012,537.92L222.012,544.242L219.488,544.242ZM222.922,547.623L222.922,538.816L231.869,538.816L231.869,541.301L225.447,541.301L225.447,547.623L222.922,547.623ZM226.357,551.004L226.357,542.197L235.303,542.197L235.303,544.682L228.881,544.682L228.881,551.004L226.357,551.004Z"/>
        </g>
    </g>
</svg>
