<svg xmlns="http://www.w3.org/2000/svg" width="101.60mm" height="101.60mm" viewBox="0 0 384 384">
  <!-- generativearts.studio -->
  <rect width="100%" height="100%" fill="white"/>
  <g id="text-1">
    <path d="M77.600 152.900Q88.910 152.900 97.100 157.515Q105.290 162.130 110.750 171.100L102.040 177.860Q97.230 169.540 91.185 166.095Q85.140 162.650 76.560 162.650Q69.670 162.650 65.185 164.600Q60.700 166.550 58.620 169.735Q56.540 172.920 56.540 176.950Q56.540 181.500 59.400 184.945Q62.260 188.390 70.840 190.340L89.430 194.500Q101.780 197.230 106.655 202.755Q111.530 208.280 111.530 216.470Q111.530 223.750 107.435 229.405Q103.340 235.060 95.930 238.180Q88.520 241.300 78.510 241.300Q69.150 241.300 62.065 238.765Q54.980 236.230 49.910 231.940Q44.840 227.650 41.590 222.320L50.690 214.910Q53.160 219.850 57.060 223.620Q60.960 227.390 66.485 229.470Q72.010 231.550 79.160 231.550Q85.790 231.550 90.665 229.925Q95.540 228.300 98.140 225.115Q100.740 221.930 100.740 217.380Q100.740 213.220 98.010 209.905Q95.280 206.590 87.740 204.900L67.590 200.350Q59.660 198.530 54.785 195.345Q49.910 192.160 47.765 187.805Q45.620 183.450 45.620 178.380Q45.620 171.490 49.455 165.705Q53.290 159.920 60.505 156.410Q67.720 152.900 77.600 152.900M169.380 215.950L169.380 198.010Q169.380 190.730 165.480 186.765Q161.580 182.800 154.430 182.800Q147.670 182.800 142.990 185.725Q138.310 188.650 136.100 195.150L127.650 189.950Q130.250 182.670 137.270 178.185Q144.290 173.700 154.690 173.700Q161.710 173.700 167.430 176.105Q173.150 178.510 176.465 183.385Q179.780 188.260 179.780 195.930L179.780 227.390Q179.780 232.070 184.720 232.070Q187.190 232.070 189.530 231.420L189.010 239.610Q186.410 240.910 182.250 240.910Q178.480 240.910 175.490 239.480Q172.500 238.050 170.810 235.125Q169.120 232.200 169.120 227.780L169.120 226.480L171.720 226.870Q170.160 231.940 166.390 235.125Q162.620 238.310 157.940 239.805Q153.260 241.300 148.710 241.300Q142.990 241.300 138.050 239.350Q133.110 237.400 130.185 233.435Q127.260 229.470 127.260 223.620Q127.260 216.340 132.135 211.595Q137.010 206.850 145.720 205.160L171.460 200.090L171.460 208.670L150.530 212.960Q144.160 214.260 141.040 216.600Q137.920 218.940 137.920 223.100Q137.920 227.130 141.105 229.665Q144.290 232.200 150.140 232.200Q153.910 232.200 157.355 231.225Q160.800 230.250 163.530 228.235Q166.260 226.220 167.820 223.165Q169.380 220.110 169.380 215.950M215.400 240L205 240L205 175L213.450 175L214.880 185.660Q217.610 179.680 222.875 176.690Q228.140 173.700 235.680 173.700Q237.370 173.700 239.385 173.960Q241.400 174.220 242.830 175L241.010 184.490Q239.580 183.970 237.890 183.710Q236.200 183.450 233.080 183.450Q229.050 183.450 224.955 185.790Q220.860 188.130 218.130 192.875Q215.400 197.620 215.400 204.900L215.400 240M296 215.950L296 198.010Q296 190.730 292.100 186.765Q288.200 182.800 281.050 182.800Q274.290 182.800 269.610 185.725Q264.930 188.650 262.720 195.150L254.270 189.950Q256.870 182.670 263.890 178.185Q270.910 173.700 281.310 173.700Q288.330 173.700 294.050 176.105Q299.770 178.510 303.085 183.385Q306.400 188.260 306.400 195.930L306.400 227.390Q306.400 232.070 311.340 232.070Q313.810 232.070 316.150 231.420L315.630 239.610Q313.030 240.910 308.870 240.910Q305.100 240.910 302.110 239.480Q299.120 238.050 297.430 235.125Q295.740 232.200 295.740 227.780L295.740 226.480L298.340 226.870Q296.780 231.940 293.010 235.125Q289.240 238.310 284.560 239.805Q279.880 241.300 275.330 241.300Q269.610 241.300 264.670 239.350Q259.730 237.400 256.805 233.435Q253.880 229.470 253.880 223.620Q253.880 216.340 258.755 211.595Q263.630 206.850 272.340 205.160L298.080 200.090L298.080 208.670L277.150 212.960Q270.780 214.260 267.660 216.600Q264.540 218.940 264.540 223.100Q264.540 227.130 267.725 229.665Q270.910 232.200 276.760 232.200Q280.530 232.200 283.975 231.225Q287.420 230.250 290.150 228.235Q292.880 226.220 294.440 223.165Q296 220.110 296 215.950" fill="#000000" fill-rule="nonzero"/>
  </g>
</svg>